<?xml version="1.0" encoding="utf-8"?>
<!-- Generator: Adobe Illustrator 26.0.1, SVG Export Plug-In . SVG Version: 6.00 Build 0)  -->
<svg version="1.1" id="Layer_1" xmlns="http://www.w3.org/2000/svg" xmlns:xlink="http://www.w3.org/1999/xlink" x="0px" y="0px"
	 viewBox="0 0 190 150" style="enable-background:new 0 0 190 150;" xml:space="preserve">
<style type="text/css">
	.st0{fill:#F6C128;}
	.st1{fill:#FDFDFC;}
	.st2{fill:#CFC7B0;}
	.st3{fill:#A4A29C;}
</style>
<path class="st0" d="M137.6,37.1c-6.7-10.3-20.1-16.8-32-18.9c-10.8-1.9-22.7-1.5-33,2.8c-24.4,10.3-41,35.1-37.7,62.1
	c1.9,15.1,9.4,30.7,21.7,40.1c2.9,2.2,8.8,7.7,12.8,6.5c6-1.8,11.9-14.7,15.5-19.6c6.8-9.2,13.4-18.7,20-28
	C115.8,67.1,126.1,51.6,137.6,37.1z"/>
<path class="st1" d="M136.6,37.1l-67,94l26,5c0.2-8.7,6.5-25.2,16-27.7c14.7-3.8,33.3,7.5,38-12.3l-32,1c7-14.8,25.4-29.2,28.9-45
	C147.8,46.5,141.1,39.4,136.6,37.1z"/>
<path class="st0" d="M96.6,136.1c20.3-3.1,36.6-9.7,48-28c-9.9,0-25.8-3.1-34.9,0.6C101.7,111.9,94.4,128.1,96.6,136.1z"/>
<path class="st2" d="M81.6,113.1l1,1L81.6,113.1z"/>
<path class="st3" d="M140.6,113.1l-2,3L140.6,113.1z"/>
<path class="st1" d="M140.6,115.1l1,1L140.6,115.1 M47.6,116.1l1,1L47.6,116.1 M139.9,116.8l0.3,0.7L139.9,116.8z"/>
<path class="st2" d="M101.6,117.1l1,1L101.6,117.1z"/>
<path class="st2" d="M76.6,120.1l1,1L76.6,120.1 M99.6,120.1l1,1L99.6,120.1z"/>
<path class="st2" d="M97.6,123.1l1,1L97.6,123.1z"/>
<path class="st2" d="M71.6,127.1l1,1L71.6,127.1z"/>
<path class="st0" d="M145.5,53.5l-29,44h33c3.3-16,3.1-28.4-2-44H145.5z"/>
</svg>
