<?xml version="1.0" encoding="utf-8"?>
<!-- Generator: Adobe Illustrator 23.0.5, SVG Export Plug-In . SVG Version: 6.00 Build 0)  -->
<svg version="1.1" id="Layer_1" xmlns="http://www.w3.org/2000/svg" xmlns:xlink="http://www.w3.org/1999/xlink" x="0px" y="0px"
	 viewBox="0 0 792 612" style="enable-background:new 0 0 792 612;" xml:space="preserve">
<style type="text/css">
	.st0{fill:#24504B;}
	.st1{fill:none;stroke:#24504B;stroke-width:7;stroke-miterlimit:10;}
</style>
<g>
	<path class="st0" d="M503.49,244.32c2.39,0.61,4.79,1.17,7.16,1.85c17.7,5.09,28.63,16.51,32.32,34.67
		c2.79,13.74,2.75,27.52-0.25,41.18c-4.78,21.83-19.06,34.4-40.29,39.18c-8.71,1.96-17.74,3.28-26.65,3.39
		c-32.94,0.4-65.88,0.2-98.82,0.14c-3.12-0.01-6.29-0.36-9.36-0.97c-5.5-1.08-9.65-5.88-9.79-11.66
		c-0.21-9.27-0.25-18.55,0.01-27.81c0.2-6.84,5.53-11.08,12.26-11.89c26.3-3.14,52.68-0.87,79.01-1.58
		c7.75-0.21,14.78-2.05,18.29-9.73c3.83-8.38,4.03-16.98-1.25-24.92c-3.96-5.96-10.18-7.7-17.01-7.7
		c-24.22-0.02-48.44,0.04-72.66-0.12c-4.03-0.03-8.15-0.65-12.07-1.64c-5.15-1.3-8.25-5.52-8.33-10.82
		c-0.13-7.89-0.13-15.78-0.01-23.67c0.1-6.14,4.38-11.05,10.37-11.87c3.92-0.54,7.91-0.85,11.87-0.87
		c23.25-0.09,46.5-0.11,69.76-0.06c7.94,0.02,15.06-1.82,19.06-9.27c4.36-8.11,4.02-16.61-0.4-24.61
		c-3.8-6.87-10.55-8.45-17.79-8.47c-22.7-0.04-45.4-0.02-68.1-0.02c-10.52,0-21.04-0.24-31.56,0.05
		c-17.62,0.5-33.77,11.74-36.26,30.37c-1,7.46-0.92,15.09-0.93,22.64c-0.03,28.51,0.12,57.02,0.16,85.53
		c0.01,9.41,0.32,18.85-0.3,28.22c-0.39,5.85,0.31,12.75-6.4,16.15c-2.87,1.45-6.13,2.84-9.25,2.94
		c-11.75,0.35-23.53,0.35-35.28,0.11c-9.32-0.19-14.15-4.83-15.18-14.07c-0.5-4.47-0.93-8.99-0.93-13.48
		c-0.06-52.32,0.07-104.64-0.09-156.95c-0.08-27.61,15.92-45.76,39.07-51.18c9.36-2.19,19.06-3.99,28.61-4.06
		c54.53-0.38,109.06-0.26,163.6-0.12c11.37,0.03,22.54,1.85,33.39,5.52c18.09,6.11,29.08,18.61,33.21,37.05
		c3.15,14.07,3.17,28.3,0.07,42.39c-4.2,19.06-11.16,28.41-35.2,34.4c-1.32,0.33-2.65,0.64-3.97,0.96
		C503.55,243.8,503.52,244.06,503.49,244.32z"/>
	<path class="st0" d="M358.56,417.33c0,11.83,0,23.66,0,35.65c-5.54,0-10.6,0-15.95,0c0-17.11,0-34.05,0-51.62
		c7.41,0,14.82-0.12,22.21,0.13c1.15,0.04,2.44,1.6,3.34,2.72c8.3,10.18,16.54,20.42,24.8,30.64c0.84,1.04,1.73,2.03,3.26,3.83
		c0-12.89,0-24.82,0-37.05c5.6,0,10.75,0,16.15,0c0,17.12,0,34.07,0,51.51c-7.46,0-14.75,0.12-22.02-0.12
		c-1.16-0.04-2.47-1.54-3.38-2.64c-8.29-10.01-16.51-20.09-24.76-30.14c-0.86-1.05-1.77-2.06-2.65-3.09
		C359.23,417.2,358.9,417.27,358.56,417.33z"/>
	<path class="st0" d="M160.52,427.53c5.81,3.03,7.95,7.86,6.25,15.7c-1.35,6.26-5.31,9.56-12.57,9.8
		c-7.88,0.25-15.78,0.04-23.66,0.13c-3.27,0.04-4.46-1.56-4.31-4.63c0.15-3.08-0.86-6.84,4.12-6.97c4.98-0.13,9.96-0.2,14.94-0.14
		c3.36,0.04,5.44-1.29,5.35-4.77c-0.09-3.31-2.3-4.39-5.37-4.36c-4.98,0.06-9.97-0.09-14.95,0.02c-3.89,0.08-4.47-2.12-4.45-5.35
		c0.02-3.14,0.37-5.52,4.34-5.45c4.98,0.09,9.96-0.05,14.95,0.01c3.27,0.04,5.54-1.13,5.48-4.66c-0.06-3.56-2.43-4.52-5.66-4.47
		c-6.36,0.1-12.73-0.01-19.1,0.04c-6.25,0.05-9.19,2.94-9.22,9.11c-0.05,8.3,0.02,16.61-0.02,24.91c-0.03,5.64-0.91,6.49-6.47,6.52
		c-1.25,0.01-2.49-0.01-3.74,0c-3.02,0.02-4.59-1.3-4.57-4.5c0.06-12.32-0.06-24.64,0.06-36.95c0.05-4.6,2.51-7.93,6.81-9.48
		c2.29-0.83,4.85-1.27,7.29-1.29c12.18-0.13,24.36-0.16,36.54-0.03c11.38,0.13,15.52,4.62,13.89,18.47
		C165.52,422.25,165.1,425.65,160.52,427.53z"/>
	<path class="st0" d="M190.85,439.9c0,4.56,0,8.64,0,12.99c-5.46,0-10.51,0-15.89,0c0-16.95,0-33.89,0-51.36
		c1.16-0.07,2.48-0.21,3.79-0.21c12.86-0.02,25.73-0.01,38.59-0.01c0.41,0,0.83,0,1.24,0.01c15.21,0.33,19.5,4.94,18.79,20.02
		c-0.24,5.05-1.86,9.17-6.94,11.28c7.02,4.98,7.52,6.53,6.44,20.54c-2.47,0-5.02,0-7.57,0c-2.47,0-4.94,0-8.01,0
		c0-2.42,0.05-4.58-0.01-6.73c-0.13-4.9-1.27-6.11-6.08-6.49c-0.96-0.08-1.94-0.04-2.9-0.04C205.4,439.9,198.49,439.9,190.85,439.9z
		 M190.96,427.2c8.72,0,16.99,0.16,25.26-0.07c3.85-0.11,5.23-2.37,5.12-7.03c-0.1-4.16-1.63-5.95-5.67-6.05
		c-5.39-0.14-10.78-0.04-16.17-0.04c-2.83,0-5.65,0-8.54,0C190.96,418.7,190.96,422.67,190.96,427.2z"/>
	<path class="st0" d="M238.18,453.16c7.73-14.24,15.72-27.36,22.07-41.24c4.04-8.82,9.3-11.6,18.63-10.91
		c5.76,0.43,9,1.67,11.65,7.05c6.89,13.99,14.54,27.6,21.87,41.37c0.56,1.05,1.01,2.17,1.71,3.72c-5.46,0-10.42,0.22-15.35-0.14
		c-1.34-0.1-3.15-1.68-3.72-3.02c-1.85-4.32-4.78-5.56-9.36-5.28c-6.88,0.42-13.82,0.27-20.72,0.04c-3.13-0.11-5.31,0.54-6.49,3.65
		c-1.44,3.8-4.07,5.36-8.31,4.86C246.5,452.82,242.74,453.16,238.18,453.16z M276.3,414.01c-3.4,6.38-6.38,11.97-9.56,17.94
		c6.7,0,12.66,0,19.29,0C282.78,425.96,279.79,420.45,276.3,414.01z"/>
	<path class="st0" d="M680.77,415.98c-2.18,0-4.06,0-5.89,0c-1.49-8.95-2.98-10.25-11.98-10.3c-7.47-0.04-14.95-0.2-22.4,0.13
		c-7.41,0.33-10,3.14-9.67,9.49c0.27,5.08,2.18,7.52,7.27,7.82c8.14,0.47,16.3,0.43,24.46,0.63c3.32,0.08,6.66,0.01,9.94,0.43
		c6.05,0.77,9.05,4.1,9.6,10.1c0.08,0.83,0.13,1.66,0.16,2.48c0.47,10.83-2.77,15.73-13.33,16.54c-11.11,0.86-22.41,0.77-33.51-0.19
		c-9.28-0.81-12.6-6.75-10.87-16.48c1.81,0,3.66,0,5.9,0c0,1.43-0.06,2.64,0.01,3.85c0.2,3.64,2.09,6.54,5.64,6.63
		c11.28,0.29,22.6,0.39,33.87-0.15c4.49-0.22,6.17-4.27,5.69-10.39c-0.36-4.6-2.2-6.62-7.19-6.79c-8.15-0.28-16.32-0.03-24.48-0.29
		c-3.98-0.12-8.05-0.43-11.87-1.46c-5.88-1.58-8.21-5.82-8.2-13.26c0.01-7.32,2.51-11.48,8.31-13.25c2.49-0.76,5.13-1.4,7.71-1.45
		c9.13-0.16,18.27-0.34,27.38,0.04C677.79,400.56,681.65,405.26,680.77,415.98z"/>
	<path class="st1" d="M513.79,449.85c5.41,0,10.83,0.21,16.22-0.05c8.13-0.4,11.46-3.68,11.75-11.75
		c0.37-10.4,0.33-11.85,0.02-22.09c-0.26-8.48-3.71-11.81-12.34-12.13c-5.4-0.2-10.82-0.09-16.23-0.05
		c-5.56,0.04-11.15-0.21-16.66,0.34c-6.7,0.67-9.45,3.58-9.73,10.17c-0.34,7.95-0.4,15.93-0.11,23.88
		c0.3,8.21,3.5,11.25,11.74,11.64C503.56,450.06,508.68,449.86,513.79,449.85z"/>
	<path class="st0" d="M569.08,433.04c0-2.19,0-3.69,0-5.77c3.23,0,6.37,0.06,9.5-0.01c7.59-0.16,15.19-0.3,22.77-0.61
		c3.85-0.16,5.55-2.64,5.86-6.27c0.04-0.41,0.06-0.83,0.08-1.24c0.54-10.05-1.22-11.95-11.35-12c-10.62-0.05-21.25-0.01-32.26-0.01
		c0,15.42,0,30.43,0,45.76c-2.24,0-4.1,0-6.32,0c0-16.98,0-34.01,0-51.21c0.84-0.13,1.63-0.35,2.43-0.35c13,0,26-0.17,38.99,0.12
		c13.15,0.29,15.83,3.35,15.8,16.57c-0.01,5.44-0.68,10.39-7.63,12.04c10.89,5.35,5.56,14.85,7.19,22.92c-2.53,0-4.41,0-6.99,0
		c0-3.48,0.04-7.02-0.01-10.55c-0.1-7.19-1.86-9.13-9.11-9.31c-8.02-0.2-16.04-0.07-24.06-0.08
		C572.48,433.04,570.98,433.04,569.08,433.04z"/>
	<path class="st0" d="M317.99,401.55c5.09,0,10.01,0,15.28,0c0,16.99,0,34,0,51.32c-4.95,0-9.97,0-15.28,0
		C317.99,435.82,317.99,418.81,317.99,401.55z"/>
	<path class="st0" d="M430.14,407c0,15.71,0,30.73,0,45.98c-2.25,0-4.11,0-6.23,0c0-17.07,0-34.03,0-51.33c16.1,0,32.18,0,48.47,0
		c0,1.76,0,3.34,0,5.35C458.39,407,444.61,407,430.14,407z"/>
	<path class="st0" d="M470.76,424.1c0,1.91,0,3.4,0,5.04c-0.94,0.16-1.73,0.4-2.52,0.4c-10.73,0.03-21.46,0.02-32.5,0.02
		c0-1.95,0-3.52,0-5.46C447.25,424.1,458.87,424.1,470.76,424.1z"/>
</g>
</svg>
