<?xml version="1.0" encoding="utf-8"?>
<!-- Generator: Adobe Illustrator 26.0.1, SVG Export Plug-In . SVG Version: 6.00 Build 0)  -->
<svg version="1.1" id="Layer_1" xmlns="http://www.w3.org/2000/svg" xmlns:xlink="http://www.w3.org/1999/xlink" x="0px" y="0px"
	 viewBox="0 0 190 150" style="enable-background:new 0 0 190 150;" xml:space="preserve">
<style type="text/css">
	.st0{fill:#9CD4DB;}
	.st1{fill:#7E8D9F;}
	.st2{fill:#38516D;}
	.st3{fill:#FFFFFF;}
	.st4{fill:#4ABCC6;}
</style>
<path class="st0" d="M110,15.8V16h9.4C117,15,112.8,15.8,110,15.8z"/>
<path class="st1" d="M110,16v9.2h0.2C110.3,22.5,111.1,18.4,110,16z"/>
<path class="st2" d="M110.3,16v9.2h8.9V16H110.3z"/>
<path class="st1" d="M119.2,16v9.2h0.2C119.5,22.5,120.2,18.4,119.2,16z"/>
<path class="st0" d="M96.8,18.3l0.2,0.1L96.8,18.3z"/>
<path class="st2" d="M96.7,18.5l-5,7.4l7.4,5.2l5.2-7.7L96.7,18.5z"/>
<path class="st1" d="M97.1,18.5l0.2,0.2L97.1,18.5 M96.4,18.7l0.2,0.2L96.4,18.7z"/>
<path class="st0" d="M97.6,18.7l0.2,0.2L97.6,18.7 M96.2,19l0.2,0.2L96.2,19z"/>
<path class="st1" d="M97.9,19l0.2,0.2L97.9,19z"/>
<path class="st0" d="M95.9,19.2l0.2,0.2L95.9,19.2z"/>
<path class="st1" d="M98.1,19.2l0.2,0.2L98.1,19.2z"/>
<path class="st0" d="M98.4,19.2l0.2,0.2L98.4,19.2z"/>
<path class="st1" d="M95.9,19.5l0.2,0.2L95.9,19.5 M98.6,19.5l0.2,0.2L98.6,19.5 M95.7,19.7l0.2,0.2L95.7,19.7 M98.9,19.7l0.2,0.2
	L98.9,19.7z"/>
<path class="st0" d="M95.4,20l0.2,0.2L95.4,20 M99.4,20l0.2,0.2L99.4,20z"/>
<path class="st1" d="M99.6,20.2l0.2,0.2L99.6,20.2 M95.2,20.5l0.2,0.2L95.2,20.5z"/>
<path class="st0" d="M100.1,20.5l0.2,0.2L100.1,20.5 M94.9,20.7l0.2,0.2L94.9,20.7z"/>
<path class="st1" d="M100.4,20.7l0.2,0.2L100.4,20.7z"/>
<path class="st0" d="M94.7,21l0.2,0.2L94.7,21z"/>
<path class="st1" d="M100.6,21l0.2,0.2L100.6,21z"/>
<path class="st0" d="M100.9,21l0.2,0.2L100.9,21z"/>
<path class="st1" d="M94.7,21.2l0.2,0.2L94.7,21.2 M101.1,21.2l0.2,0.2L101.1,21.2 M94.4,21.5l0.2,0.2L94.4,21.5 M101.4,21.5
	l0.2,0.2L101.4,21.5z"/>
<path class="st0" d="M94.2,21.7l0.2,0.2L94.2,21.7 M101.9,21.7l0.2,0.2L101.9,21.7z"/>
<path class="st1" d="M102.1,22l0.2,0.2L102.1,22 M93.9,22.2l0.2,0.2L93.9,22.2z"/>
<path class="st0" d="M102.6,22.2l0.2,0.2L102.6,22.2z"/>
<path class="st1" d="M93.7,22.4l0.2,0.2L93.7,22.4 M102.9,22.4l0.2,0.2L102.9,22.4z"/>
<path class="st0" d="M93.4,22.7l0.2,0.2L93.4,22.7z"/>
<path class="st1" d="M103.1,22.7l0.2,0.2L103.1,22.7z"/>
<path class="st0" d="M103.4,22.7l0.2,0.2L103.4,22.7z"/>
<path class="st1" d="M93.4,22.9l0.2,0.2L93.4,22.9 M103.6,22.9l0.2,0.2L103.6,22.9 M93.2,23.2l0.2,0.2L93.2,23.2 M103.8,23.2
	l0.2,0.2L103.8,23.2z"/>
<path class="st0" d="M92.9,23.4l0.2,0.2L92.9,23.4 M104.4,23.6l0.1,0.2L104.4,23.6z"/>
<path class="st1" d="M92.7,23.9l0.2,0.2L92.7,23.9z"/>
<path class="st0" d="M104.1,23.9l0.2,0.2L104.1,23.9z"/>
<path class="st1" d="M92.4,24.2l0.2,0.2L92.4,24.2 M103.8,24.2l0.2,0.2L103.8,24.2z"/>
<path class="st0" d="M92.2,24.4l0.2,0.2L92.2,24.4z"/>
<path class="st1" d="M92.2,24.7l0.2,0.2L92.2,24.7z"/>
<path class="st0" d="M103.6,24.7l0.2,0.2L103.6,24.7z"/>
<path class="st1" d="M91.9,24.9l0.2,0.2L91.9,24.9 M103.4,24.9l0.2,0.2L103.4,24.9z"/>
<path class="st0" d="M91.7,25.2l0.2,0.2L91.7,25.2z"/>
<path class="st1" d="M103.1,25.2l0.2,0.2L103.1,25.2z"/>
<path class="st0" d="M110,25.2v0.2h9.4C117,24.4,112.8,25.2,110,25.2 M103.1,25.4l0.2,0.2L103.1,25.4z"/>
<path class="st1" d="M91.4,25.7l0.2,0.2L91.4,25.7z"/>
<path class="st0" d="M102.9,25.7l0.2,0.2L102.9,25.7 M91.7,25.9l0.2,0.2L91.7,25.9z"/>
<path class="st1" d="M102.6,25.9l0.2,0.2L102.6,25.9z"/>
<path class="st0" d="M91.9,26.2l0.2,0.2L91.9,26.2z"/>
<path class="st1" d="M92.2,26.2l0.2,0.2L92.2,26.2 M92.4,26.4l0.2,0.2L92.4,26.4z"/>
<path class="st0" d="M102.4,26.4l0.2,0.2L102.4,26.4 M92.7,26.7l0.2,0.2L92.7,26.7z"/>
<path class="st1" d="M102.1,26.7l0.2,0.2L102.1,26.7 M93.2,26.9l0.2,0.2L93.2,26.9 M101.9,26.9l0.2,0.2L101.9,26.9 M93.4,27.2
	l0.2,0.2L93.4,27.2z"/>
<path class="st0" d="M101.9,27.2l0.2,0.2L101.9,27.2 M93.7,27.4l0.2,0.2L93.7,27.4 M101.6,27.4l0.2,0.2L101.6,27.4z"/>
<path class="st1" d="M94.2,27.7l0.2,0.2L94.2,27.7 M101.4,27.7l0.2,0.2L101.4,27.7z"/>
<path class="st0" d="M94.4,27.9l0.2,0.2L94.4,27.9z"/>
<path class="st1" d="M94.9,28.2l0.2,0.2L94.9,28.2z"/>
<path class="st0" d="M101.1,28.2l0.2,0.2L101.1,28.2z"/>
<path class="st1" d="M95.2,28.4l0.2,0.2L95.2,28.4 M100.9,28.4l0.2,0.2L100.9,28.4z"/>
<path class="st0" d="M95.4,28.6l0.2,0.2L95.4,28.6z"/>
<path class="st1" d="M100.6,28.6l0.2,0.2L100.6,28.6 M95.9,28.9l0.2,0.2L95.9,28.9z"/>
<path class="st0" d="M100.6,28.9l0.2,0.2L100.6,28.9 M96.2,29.1l0.2,0.2L96.2,29.1 M100.4,29.1l0.2,0.2L100.4,29.1 M96.4,29.4
	l0.2,0.2L96.4,29.4z"/>
<path class="st1" d="M96.7,29.4l0.2,0.2L96.7,29.4 M100.1,29.4l0.2,0.2L100.1,29.4 M96.9,29.6l0.2,0.2L96.9,29.6 M72.8,29.9v6.7
	l0.4,2.5l4.8,0.3l4-0.4l0.3-2.6v-6.4H82v9.2h-8.9C73.1,36.4,73.9,32.3,72.8,29.9z"/>
<path class="st2" d="M73.1,29.9v9.2H82v-9.2H73.1z"/>
<path class="st0" d="M97.1,29.9l0.2,0.2L97.1,29.9 M99.9,29.9l0.2,0.2L99.9,29.9z"/>
<path class="st1" d="M97.6,30.1l0.2,0.2L97.6,30.1 M99.6,30.1l0.2,0.2L99.6,30.1 M97.9,30.4l0.2,0.2L97.9,30.4 M99.4,30.4l0.2,0.2
	L99.4,30.4z"/>
<path class="st0" d="M98.1,30.6l0.2,0.2L98.1,30.6 M99.4,30.6l0.2,0.2L99.4,30.6z"/>
<path class="st1" d="M98.6,30.9l0.2,0.2L98.6,30.9z"/>
<path class="st0" d="M99.1,30.9l0.2,0.2L99.1,30.9 M98.9,31.1l0.2,0.2L98.9,31.1z"/>
<path class="st1" d="M107.1,33.6l0.2,0.2L107.1,33.6z"/>
<path class="st0" d="M107.3,33.6l0.2,0.2L107.3,33.6 M106.6,33.9l0.2,0.2L106.6,33.9z"/>
<path class="st2" d="M105.3,46.5l7.4-5.5v-0.2l-5.2-6.9c-2.1,0.5-4,2.5-5.7,3.8c-0.6,0.5-1.6,1-1.4,1.9
	C100.7,41.8,104,44.7,105.3,46.5z"/>
<path class="st1" d="M106.3,34.1l0.2,0.2L106.3,34.1 M107.6,34.1l0.2,0.2L107.6,34.1 M106.1,34.4l0.2,0.2L106.1,34.4 M107.8,34.4
	l0.2,0.2L107.8,34.4z"/>
<path class="st0" d="M105.6,34.6l0.2,0.2L105.6,34.6 M108.1,34.6l0.2,0.2L108.1,34.6z"/>
<path class="st1" d="M105.3,34.8l0.2,0.2L105.3,34.8 M105.1,35.1l0.2,0.2L105.1,35.1 M108.3,35.1l0.2,0.2L108.3,35.1z"/>
<path class="st0" d="M104.6,35.3l0.2,0.2L104.6,35.3z"/>
<path class="st1" d="M108.6,35.3l0.2,0.2L108.6,35.3 M104.3,35.6l0.2,0.2L104.3,35.6z"/>
<path class="st0" d="M108.8,35.6l0.2,0.2L108.8,35.6z"/>
<path class="st1" d="M104.1,35.8l0.2,0.2L104.1,35.8z"/>
<path class="st0" d="M103.6,36.1l0.2,0.2L103.6,36.1z"/>
<path class="st1" d="M109.1,36.1l0.2,0.2L109.1,36.1 M103.4,36.3l0.2,0.2L103.4,36.3 M109.3,36.3l0.2,0.2L109.3,36.3 M103.1,36.6
	l0.2,0.2L103.1,36.6z"/>
<path class="st0" d="M109.6,36.6l0.2,0.2L109.6,36.6 M102.6,36.8l0.2,0.2L102.6,36.8z"/>
<path class="st1" d="M102.4,37.1l0.2,0.2L102.4,37.1 M109.8,37.1l0.2,0.2L109.8,37.1 M102.1,37.3l0.2,0.2L102.1,37.3 M110,37.3
	l0.2,0.2L110,37.3z"/>
<path class="st0" d="M101.6,37.6l0.2,0.2L101.6,37.6 M110.3,37.6l0.2,0.2L110.3,37.6 M101.4,37.8l0.2,0.2L101.4,37.8 M110.5,37.8
	l0.2,0.2L110.5,37.8z"/>
<path class="st1" d="M101.1,38.1l0.2,0.2L101.1,38.1 M110.5,38.1l0.2,0.2L110.5,38.1z"/>
<path class="st0" d="M100.6,38.3l0.2,0.2L100.6,38.3z"/>
<path class="st1" d="M110.8,38.3l0.2,0.2L110.8,38.3z"/>
<path class="st0" d="M100.4,38.6l0.2,0.2L100.4,38.6 M111,38.6l0.2,0.2L111,38.6z"/>
<path class="st1" d="M100.1,38.8l0.2,0.2L100.1,38.8z"/>
<path class="st0" d="M111.3,38.8l0.2,0.2L111.3,38.8 M72.8,39.1l0.2,0.2L72.8,39.1 M82,39.1l0.2,0.2L82,39.1z"/>
<path class="st1" d="M99.9,39.1l0.2,0.2L99.9,39.1 M111.3,39.1l0.2,0.2L111.3,39.1z"/>
<path class="st0" d="M99.9,39.3l0.2,0.2L99.9,39.3z"/>
<path class="st1" d="M111.5,39.3l0.2,0.2L111.5,39.3 M100.1,39.6l0.2,0.2L100.1,39.6z"/>
<path class="st0" d="M111.8,39.6l0.2,0.2L111.8,39.6z"/>
<path class="st1" d="M100.4,39.8l0.2,0.2L100.4,39.8z"/>
<path class="st0" d="M112,39.8l0.2,0.2L112,39.8 M100.6,40.3l0.2,0.2L100.6,40.3z"/>
<path class="st1" d="M112.3,40.3l0.2,0.2L112.3,40.3 M100.9,40.6l0.2,0.2L100.9,40.6z"/>
<path class="st0" d="M112.5,40.6l0.2,0.2L112.5,40.6z"/>
<path class="st1" d="M101.1,40.8l0.2,0.2L101.1,40.8z"/>
<path class="st0" d="M112.8,40.8L113,41L112.8,40.8 M112.5,41l0.2,0.2L112.5,41 M101.4,41.3l0.2,0.2L101.4,41.3 M112.3,41.3l0.2,0.2
	L112.3,41.3z"/>
<path class="st1" d="M72.8,41.5v6.7l0.4,2.5l4.8,0.3l4-0.4l0.3-2.6v-6.4H82v9.2h-8.9C73.1,48.1,73.9,44,72.8,41.5z"/>
<path class="st2" d="M73.1,41.5v9.2H82v-9.2H73.1 M84.5,41.5v9.2h9.2v-9.2H84.5z"/>
<path class="st1" d="M93.7,41.5v9.2h-8.9V51h6.2l2.6-0.3l0.4-2.2L93.7,41.5 M101.6,41.5l0.2,0.2L101.6,41.5 M111.8,41.5l0.2,0.2
	L111.8,41.5 M84.5,41.8l0.2,0.2L84.5,41.8 M101.9,41.8l0.2,0.2L101.9,41.8 M111.5,41.8l0.2,0.2L111.5,41.8z"/>
<path class="st0" d="M111.3,42l0.2,0.2L111.3,42 M102.1,42.3l0.2,0.2L102.1,42.3z"/>
<path class="st1" d="M110.8,42.3l0.2,0.2L110.8,42.3 M84.5,42.5l0.2,0.2L84.5,42.5 M102.4,42.5l0.2,0.2L102.4,42.5 M110.5,42.5
	l0.2,0.2L110.5,42.5 M102.6,42.8l0.2,0.2L102.6,42.8z"/>
<path class="st0" d="M110.3,42.8l0.2,0.2L110.3,42.8z"/>
<path class="st1" d="M84.5,43l0.2,0.2L84.5,43 M109.8,43l0.2,0.2L109.8,43z"/>
<path class="st0" d="M102.9,43.3l0.2,0.2L102.9,43.3z"/>
<path class="st1" d="M109.6,43.3l0.2,0.2L109.6,43.3 M84.5,43.5l0.2,0.2L84.5,43.5 M103.1,43.5l0.2,0.2L103.1,43.5z"/>
<path class="st0" d="M109.3,43.5l0.2,0.2L109.3,43.5z"/>
<path class="st1" d="M103.4,43.8l0.2,0.2L103.4,43.8 M108.8,43.8l0.2,0.2L108.8,43.8 M84.5,44l0.2,0.2L84.5,44 M108.6,44l0.2,0.2
	L108.6,44z"/>
<path class="st0" d="M103.6,44.3l0.2,0.2L103.6,44.3 M108.3,44.3l0.2,0.2L108.3,44.3z"/>
<path class="st1" d="M84.5,44.5l0.2,0.2L84.5,44.5 M103.8,44.5l0.2,0.2L103.8,44.5 M107.8,44.5l0.2,0.2L107.8,44.5z"/>
<path class="st0" d="M108.1,44.5l0.2,0.2L108.1,44.5z"/>
<path class="st1" d="M104.1,44.8l0.2,0.2L104.1,44.8 M107.6,44.8l0.2,0.2L107.6,44.8 M84.5,45l0.2,0.2L84.5,45z"/>
<path class="st0" d="M107.3,45l0.2,0.2L107.3,45 M104.3,45.3l0.2,0.2L104.3,45.3 M107.1,45.3l0.2,0.2L107.1,45.3z"/>
<path class="st1" d="M84.5,45.5l0.2,0.2L84.5,45.5 M104.6,45.5l0.2,0.2L104.6,45.5 M106.6,45.5l0.2,0.2L106.6,45.5 M104.8,45.8
	l0.2,0.2L104.8,45.8z"/>
<path class="st0" d="M106.3,45.8l0.2,0.2L106.3,45.8z"/>
<path class="st1" d="M84.5,46l0.2,0.2L84.5,46z"/>
<path class="st0" d="M106.1,46l0.2,0.2L106.1,46 M105.1,46.3l0.2,0.2L105.1,46.3z"/>
<path class="st1" d="M105.6,46.3l0.2,0.2L105.6,46.3z"/>
<path class="st0" d="M105.3,46.5l0.2,0.2L105.3,46.5z"/>
<path class="st1" d="M84.5,46.8l0.2,0.2L84.5,46.8 M84.5,47.5l0.2,0.2L84.5,47.5 M84.5,48l0.2,0.2L84.5,48 M84.5,48.5l0.2,0.2
	L84.5,48.5 M84.5,49l0.2,0.2L84.5,49 M84.5,49.5l0.2,0.2L84.5,49.5 M84.5,50l0.2,0.2L84.5,50z"/>
<path class="st0" d="M72.8,50.7l0.2,0.2L72.8,50.7 M82,50.7l0.2,0.2L82,50.7 M84.5,50.7l0.2,0.2L84.5,50.7 M93.7,50.7l0.2,0.2
	L93.7,50.7 M72.8,53v0.2h9.4C79.8,52.2,75.6,53,72.8,53 M84.5,53v0.2h9.4C91.4,52.2,87.2,53,84.5,53 M96.2,53v0.2h9.4
	C103.1,52.2,98.9,53,96.2,53z"/>
<path class="st1" d="M72.8,53.2v9.2h0.2C73.1,59.7,73.9,55.6,72.8,53.2z"/>
<path class="st2" d="M73.1,53.2v9.2H82v-9.2H73.1z"/>
<path class="st1" d="M82,53.2v9.2h0.2C82.3,59.7,83,55.6,82,53.2z"/>
<path class="st2" d="M84.5,53.2v8.9l9.2,0.2v-9.2H84.5z"/>
<path class="st1" d="M93.7,53.2v9.2h0.2C93.9,59.7,94.7,55.6,93.7,53.2z"/>
<path class="st2" d="M96.2,53.2v9.2h9.2v-9.2H96.2z"/>
<path class="st1" d="M105.3,53.2v1h0.2L105.3,53.2 M84.5,53.4l0.2,0.2L84.5,53.4 M84.5,53.9l0.2,0.2L84.5,53.9z"/>
<path class="st0" d="M105.3,54.2l0.2,0.2L105.3,54.2z"/>
<path class="st1" d="M84.5,54.4l0.2,0.2L84.5,54.4 M105.3,54.4v1.2h0.2L105.3,54.4 M84.5,54.9l0.2,0.2L84.5,54.9 M84.5,55.4l0.2,0.2
	L84.5,55.4z"/>
<path class="st0" d="M105.3,55.7l0.2,0.2L105.3,55.7z"/>
<path class="st1" d="M84.5,55.9l0.2,0.2L84.5,55.9 M105.3,55.9v1.2h0.2L105.3,55.9 M84.5,56.4l0.2,0.2L84.5,56.4 M84.5,56.9l0.2,0.2
	L84.5,56.9z"/>
<path class="st0" d="M105.3,57.2l0.2,0.2L105.3,57.2z"/>
<path class="st1" d="M84.5,57.4l0.2,0.2L84.5,57.4 M105.3,57.4v1.2h0.2L105.3,57.4 M84.5,57.9l0.2,0.2L84.5,57.9 M84.5,58.4l0.2,0.2
	L84.5,58.4z"/>
<path class="st0" d="M105.3,58.7l0.2,0.2L105.3,58.7z"/>
<path class="st1" d="M84.5,58.9l0.2,0.2L84.5,58.9 M105.3,58.9v1.2h0.2L105.3,58.9 M84.5,59.4l0.2,0.2L84.5,59.4 M84.5,59.9l0.2,0.2
	L84.5,59.9z"/>
<path class="st0" d="M105.3,60.1l0.2,0.2L105.3,60.1z"/>
<path class="st1" d="M84.5,60.4l0.2,0.2L84.5,60.4 M105.3,60.4v1.2h0.2L105.3,60.4 M84.5,60.9l0.2,0.2L84.5,60.9 M84.5,61.4l0.2,0.2
	L84.5,61.4z"/>
<path class="st0" d="M105.3,61.6l0.2,0.2L105.3,61.6z"/>
<path class="st1" d="M105.4,62l0.1,0.2L105.4,62 M84.5,62.1l0.2,0.2L84.5,62.1z"/>
<path class="st0" d="M72.8,62.4v0.2h9.4C79.8,61.6,75.6,62.4,72.8,62.4 M84.5,62.4v0.2h9.4C91.4,61.6,87.2,62.4,84.5,62.4
	 M96.2,62.4v0.2h9.2C102.9,61.6,98.8,62.4,96.2,62.4z"/>
<path class="st1" d="M64.2,83l0.2,0.2L64.2,83z"/>
<path class="st2" d="M60.7,92.1c-4.4-4.3-10.3,4.5-9.3,8.7c1,4.3,5.7,1.9,7-0.7h0.2c0,3.2,3.6,4.5,4.5,1c-3.2,0.4-2.2-2.3-1.5-4.5
	c0.9-2.9,1.7-5.8,2.7-8.7c0.4-1.1,1.4-2.7,1.3-3.9c-0.1-1.1-1.3-1-1.9-0.4c-1.1,1.1-1.5,3.2-2,4.6C61.4,89.5,61,90.8,60.7,92.1z"/>
<path class="st1" d="M65.2,83l0.2,0.2L65.2,83z"/>
<path class="st0" d="M65.4,83l0.2,0.2L65.4,83 M103.1,83l0.2,0.2L103.1,83z"/>
<path class="st1" d="M103.4,83l0.2,0.2L103.4,83z"/>
<path class="st2" d="M103.1,100.8c-3.1,0.8-2-2-1.3-4c1-3.2,2.2-6.4,3.1-9.7c0.3-1.1,0.9-2.9-0.1-3.8c-1.8-1.5-2,2.4-2.2,3.3
	c-0.7,3.2-1.8,6.3-2.9,9.4c-0.5,1.5-1.4,3.6-1.1,5.2C99.2,104.3,102.6,103.3,103.1,100.8z"/>
<path class="st1" d="M104.3,83l0.2,0.2L104.3,83z"/>
<path class="st0" d="M109.8,83l0.2,0.2L109.8,83z"/>
<path class="st1" d="M110,83l0.2,0.2L110,83z"/>
<path class="st2" d="M109.8,100.8c-3.1,0.8-2-2-1.3-4c1-3.2,2.2-6.4,3.1-9.7c0.3-1.1,0.9-2.9-0.1-3.8c-1.8-1.5-2,2.4-2.2,3.3
	c-0.7,3.2-1.8,6.3-2.9,9.4c-0.5,1.5-1.4,3.6-1.1,5.2C105.9,104.3,109.3,103.3,109.8,100.8z"/>
<path class="st1" d="M111,83l0.2,0.2L111,83 M65.7,83.2l0.2,0.2L65.7,83.2z"/>
<path class="st0" d="M104.8,83.2l0.2,0.2L104.8,83.2 M111.5,83.2l0.2,0.2L111.5,83.2 M65.9,83.5l0.2,0.2L65.9,83.5z"/>
<path class="st1" d="M102.9,83.6l0.1,0.2L102.9,83.6z"/>
<path class="st0" d="M105.1,83.5l0.2,0.2L105.1,83.5z"/>
<path class="st1" d="M109.6,83.6l0.1,0.2L109.6,83.6z"/>
<path class="st0" d="M111.8,83.5l0.2,0.2L111.8,83.5z"/>
<path class="st1" d="M63.4,83.7l0.2,0.2L63.4,83.7 M65.9,83.7l0.2,0.2L65.9,83.7 M105.1,83.7l0.2,0.2L105.1,83.7 M111.8,83.7L112,84
	L111.8,83.7z"/>
<path class="st0" d="M65.9,84l0.2,0.2L65.9,84 M105.3,84v1.2h0.2L105.3,84 M112,84v1.2h0.2L112,84z"/>
<path class="st1" d="M63.2,84.2l0.2,0.2L63.2,84.2 M65.7,84.2l0.2,0.2L65.7,84.2z"/>
<path class="st0" d="M65.7,84.4l0.2,0.2L65.7,84.4 M34.8,84.8l0.2,0.1L34.8,84.8z"/>
<path class="st1" d="M35.3,84.8l0.2,0.1L35.3,84.8z"/>
<path class="st2" d="M35.6,99.6c-1.5,0.6-3,2.2-4.7,1.9c-2-0.4-2.1-3-2-4.6c0.3-3.6,2.9-8.8,6.4-10.2c0.9-0.3,2.2-0.2,2.2,1
	c0.1,2-2.5,2.6-2.8,4.2c-0.2,1.4,1.8,1.3,2.5,0.8c2.2-1.4,3.3-5.6,0.9-7.3c-2-1.5-4.9-0.1-6.6,1.2c-3.5,2.7-7.7,10.6-4.6,14.9
	C29,104.2,36.8,103.8,35.6,99.6z"/>
<path class="st1" d="M37,84.8l0.2,0.1L37,84.8z"/>
<path class="st0" d="M37.4,84.7l0.2,0.2L37.4,84.7z"/>
<path class="st1" d="M62.9,84.7l0.2,0.2L62.9,84.7z"/>
<path class="st0" d="M95.9,84.7l0.2,0.2L95.9,84.7z"/>
<path class="st1" d="M96.2,84.7v0.2h0.7L96.2,84.7z"/>
<path class="st2" d="M84.5,95.9H86c-1.7,2.4-2.6,4.8-5.2,6.4v0.5c4.4,2.1,5.1-4.8,7.4-6.8c1-0.9,3.3-0.4,4.6-0.4
	c-0.7,1.6-1.5,4.5-0.8,6.2c1,2.5,3.9,1.2,4.8-0.5c-0.6-0.1-1.6,0-2.1-0.4c-0.9-0.9-0.1-4.1,0.7-4.9c1-1,2-0.7,2.6-2.1l-2.2-0.5
	c0.9-2,1.7-4.1,2.4-6.2c0.2-0.6,0.6-1.7,0-2.2c-1.1-0.8-3.4,0.4-4.3,1c-2.9,2-4.4,4.9-6.5,7.6C86.4,94.6,85.1,94.7,84.5,95.9z"/>
<path class="st1" d="M97.9,84.7l0.2,0.2L97.9,84.7z"/>
<path class="st0" d="M98.1,84.7l0.2,0.2L98.1,84.7 M102.7,84.9l0.1,0.2L102.7,84.9 M109.4,84.9l0.1,0.2L109.4,84.9 M116.2,84.7
	l0.2,0.2L116.2,84.7z"/>
<path class="st1" d="M116.5,84.7l0.2,0.2L116.5,84.7z"/>
<path class="st2" d="M116.7,84.9c-2,0.4-1.6,3.5,0.5,3.2C119.3,87.7,119,84.4,116.7,84.9z"/>
<path class="st1" d="M117.7,84.8l0.2,0.1L117.7,84.8z"/>
<path class="st0" d="M118,84.7l0.2,0.2L118,84.7 M33.9,84.9l0.2,0.2L33.9,84.9z"/>
<path class="st1" d="M34.2,84.9l0.2,0.2L34.2,84.9z"/>
<path class="st0" d="M37.9,84.9l0.2,0.2L37.9,84.9z"/>
<path class="st1" d="M65.4,84.9l0.2,0.2L65.4,84.9z"/>
<path class="st0" d="M95.2,84.9l0.2,0.2L95.2,84.9z"/>
<path class="st1" d="M95.4,84.9l0.2,0.2L95.4,84.9z"/>
<path class="st0" d="M98.4,84.9l0.2,0.2L98.4,84.9 M115.8,84.9l0.2,0.2L115.8,84.9z"/>
<path class="st1" d="M118.2,84.9l0.2,0.2L118.2,84.9z"/>
<path class="st0" d="M33.4,85.2l0.2,0.2L33.4,85.2z"/>
<path class="st1" d="M33.7,85.2l0.2,0.2L33.7,85.2 M38.1,85.2l0.2,0.2L38.1,85.2z"/>
<path class="st0" d="M62.7,85.2l0.2,0.2L62.7,85.2 M65.4,85.2l0.2,0.2L65.4,85.2 M94.7,85.2l0.2,0.2L94.7,85.2z"/>
<path class="st1" d="M98.4,85.2v0.7h0.2L98.4,85.2 M102.7,85.4l0.1,0.2L102.7,85.4 M109.4,85.4l0.1,0.2L109.4,85.4 M115.5,85.2
	l0.2,0.2L115.5,85.2 M118.5,85.2l0.2,0.2L118.5,85.2z"/>
<path class="st0" d="M32.9,85.4l0.2,0.2L32.9,85.4z"/>
<path class="st1" d="M33.2,85.4l0.2,0.2L33.2,85.4z"/>
<path class="st0" d="M38.6,85.4l0.2,0.2L38.6,85.4z"/>
<path class="st1" d="M62.7,85.4l0.2,0.2L62.7,85.4 M65.2,85.4l0.2,0.2L65.2,85.4z"/>
<path class="st0" d="M94.2,85.4l0.2,0.2L94.2,85.4 M115.3,85.4l0.2,0.2L115.3,85.4 M118.7,85.4l0.2,0.2L118.7,85.4z"/>
<path class="st1" d="M32.7,85.7l0.2,0.2L32.7,85.7z"/>
<path class="st0" d="M62.4,85.7l0.2,0.2L62.4,85.7 M65.2,85.7l0.2,0.2L65.2,85.7 M93.7,85.7l0.2,0.2L93.7,85.7z"/>
<path class="st1" d="M93.9,85.7l0.2,0.2L93.9,85.7 M105.2,85.9l0.1,0.2L105.2,85.9 M111.9,85.9l0.1,0.2L111.9,85.9 M115.3,85.7
	l0.2,0.2L115.3,85.7 M118.7,85.7v0.7h0.2L118.7,85.7z"/>
<path class="st0" d="M32.2,85.9l0.2,0.2L32.2,85.9z"/>
<path class="st1" d="M38.9,85.9l0.2,0.2L38.9,85.9 M62.4,85.9l0.2,0.2L62.4,85.9 M93.4,85.9l0.2,0.2L93.4,85.9z"/>
<path class="st0" d="M98.4,85.9l0.2,0.2L98.4,85.9z"/>
<path class="st1" d="M31.9,86.2l0.2,0.2L31.9,86.2z"/>
<path class="st0" d="M39.1,86.2l0.2,0.2L39.1,86.2z"/>
<path class="st1" d="M64.9,86.2l0.2,0.2L64.9,86.2z"/>
<path class="st0" d="M92.9,86.2l0.2,0.2L92.9,86.2z"/>
<path class="st1" d="M93.2,86.2l0.2,0.2L93.2,86.2z"/>
<path class="st0" d="M102.4,86.2l0.2,0.2L102.4,86.2 M105.1,86.2l0.2,0.2L105.1,86.2 M109.1,86.2l0.2,0.2L109.1,86.2 M111.8,86.2
	l0.2,0.2L111.8,86.2 M31.4,86.4l0.2,0.2L31.4,86.4z"/>
<path class="st1" d="M31.7,86.4l0.2,0.2L31.7,86.4 M35.6,86.5l0.2,0.1L35.6,86.5z"/>
<path class="st0" d="M35.9,86.4l0.2,0.2L35.9,86.4 M36.9,86.4l0.2,0.2L36.9,86.4z"/>
<path class="st1" d="M37.1,86.4l0.2,0.2L37.1,86.4z"/>
<path class="st0" d="M62.2,86.4l0.2,0.2L62.2,86.4 M64.9,86.4l0.2,0.2L64.9,86.4 M92.7,86.4l0.2,0.2L92.7,86.4z"/>
<path class="st1" d="M95.8,86.5l0.2,0.1L95.8,86.5 M98.1,86.4l0.2,0.2L98.1,86.4 M102.4,86.6l0.1,0.2L102.4,86.6 M109.1,86.6
	l0.1,0.2L109.1,86.6z"/>
<path class="st0" d="M118.7,86.4l0.2,0.2L118.7,86.4 M31.2,86.7l0.2,0.2L31.2,86.7z"/>
<path class="st1" d="M34.9,86.7l0.2,0.2L34.9,86.7z"/>
<path class="st0" d="M35.1,86.7l0.2,0.2L35.1,86.7z"/>
<path class="st1" d="M37.4,86.7l0.2,0.2L37.4,86.7z"/>
<path class="st0" d="M39.4,86.7l0.2,0.2L39.4,86.7z"/>
<path class="st1" d="M62.2,86.7l0.2,0.2L62.2,86.7 M92.4,86.7l0.2,0.2L92.4,86.7 M94.9,86.7l0.2,0.2L94.9,86.7z"/>
<path class="st0" d="M95.2,86.7l0.2,0.2L95.2,86.7z"/>
<path class="st3" d="M89.5,93.6l3.7-0.2l2.7-6.7C92.9,87.6,90.7,90.9,89.5,93.6z"/>
<path class="st0" d="M98.1,86.7l0.2,0.2L98.1,86.7z"/>
<path class="st1" d="M104.9,86.8L105,87L104.9,86.8 M111.6,86.8l0.1,0.2L111.6,86.8z"/>
<path class="st0" d="M30.9,86.9l0.2,0.2L30.9,86.9z"/>
<path class="st1" d="M34.4,86.9l0.2,0.2L34.4,86.9z"/>
<path class="st0" d="M34.7,86.9l0.2,0.2L34.7,86.9z"/>
<path class="st1" d="M39.4,86.9l0.2,0.2L39.4,86.9 M64.7,86.9l0.2,0.2L64.7,86.9 M92.2,86.9l0.2,0.2L92.2,86.9z"/>
<path class="st0" d="M94.7,86.9l0.2,0.2L94.7,86.9z"/>
<path class="st1" d="M95.7,86.9l0.2,0.2L95.7,86.9 M115.3,86.9l0.2,0.2L115.3,86.9 M118.5,86.9l0.2,0.2L118.5,86.9 M30.7,87.2
	l0.2,0.2L30.7,87.2z"/>
<path class="st0" d="M34.2,87.2l0.2,0.2L34.2,87.2z"/>
<path class="st1" d="M37.6,87.2v0.7h0.2L37.6,87.2z"/>
<path class="st0" d="M61.9,87.2l0.2,0.2L61.9,87.2 M64.7,87.2l0.2,0.2L64.7,87.2z"/>
<path class="st1" d="M91.9,87.2l0.2,0.2L91.9,87.2 M94.2,87.2l0.2,0.2L94.2,87.2 M97.9,87.2l0.2,0.2L97.9,87.2z"/>
<path class="st0" d="M102.2,87.3l0.1,0.2L102.2,87.3 M104.8,87.2l0.2,0.2L104.8,87.2 M108.9,87.3l0.1,0.2L108.9,87.3 M111.5,87.2
	l0.2,0.2L111.5,87.2 M118.5,87.2l0.2,0.2L118.5,87.2z"/>
<path class="st1" d="M30.4,87.4l0.2,0.2L30.4,87.4 M33.7,87.4l0.2,0.2L33.7,87.4z"/>
<path class="st0" d="M33.9,87.4l0.2,0.2L33.9,87.4 M39.6,87.4v0.7h0.2L39.6,87.4z"/>
<path class="st1" d="M61.9,87.4l0.2,0.2L61.9,87.4 M64.5,87.6l0.1,0.2L64.5,87.6 M91.7,87.4l0.2,0.2L91.7,87.4z"/>
<path class="st0" d="M93.9,87.4l0.2,0.2L93.9,87.4z"/>
<path class="st1" d="M95.4,87.4l0.2,0.2L95.4,87.4z"/>
<path class="st0" d="M97.9,87.4l0.2,0.2L97.9,87.4 M115.5,87.4l0.2,0.2L115.5,87.4 M118.2,87.4l0.2,0.2L118.2,87.4z"/>
<path class="st1" d="M30.2,87.7l0.2,0.2L30.2,87.7 M33.4,87.7l0.2,0.2L33.4,87.7 M91.4,87.7l0.2,0.2L91.4,87.7 M93.4,87.7l0.2,0.2
	L93.4,87.7z"/>
<path class="st0" d="M93.7,87.7l0.2,0.2L93.7,87.7z"/>
<path class="st1" d="M97.6,87.7l0.2,0.2L97.6,87.7 M102.1,87.7l0.2,0.2L102.1,87.7 M104.6,87.7l0.2,0.2L104.6,87.7 M108.8,87.7
	l0.2,0.2L108.8,87.7 M111.3,87.7l0.2,0.2L111.3,87.7 M115.8,87.7l0.2,0.2L115.8,87.7z"/>
<path class="st0" d="M118,87.7l0.2,0.2L118,87.7 M29.9,87.9l0.2,0.2L29.9,87.9z"/>
<path class="st1" d="M33.2,87.9l0.2,0.2L33.2,87.9z"/>
<path class="st0" d="M61.7,87.9l0.2,0.2L61.7,87.9z"/>
<path class="st1" d="M91.2,87.9l0.2,0.2L91.2,87.9 M93.2,87.9l0.2,0.2L93.2,87.9 M95.2,87.9l0.2,0.2L95.2,87.9z"/>
<path class="st0" d="M97.6,87.9l0.2,0.2L97.6,87.9 M104.7,88.1l0.1,0.2L104.7,88.1 M111.4,88.1l0.1,0.2L111.4,88.1 M116,87.9
	l0.2,0.2L116,87.9z"/>
<path class="st1" d="M116.2,87.9l0.2,0.2L116.2,87.9 M117.5,87.9l0.2,0.2L117.5,87.9z"/>
<path class="st0" d="M29.7,88.2l0.2,0.2L29.7,88.2z"/>
<path class="st1" d="M32.9,88.2l0.2,0.2L32.9,88.2z"/>
<path class="st0" d="M37.4,88.2l0.2,0.2L37.4,88.2z"/>
<path class="st1" d="M39.6,88.2l0.2,0.2L39.6,88.2 M61.7,88.2l0.2,0.2L61.7,88.2 M64.2,88.2l0.2,0.2L64.2,88.2 M90.9,88.2l0.2,0.2
	L90.9,88.2 M92.9,88.2l0.2,0.2L92.9,88.2z"/>
<path class="st0" d="M101.9,88.3l0.1,0.2L101.9,88.3 M108.6,88.3l0.1,0.2L108.6,88.3 M116.7,88.2l0.2,0.2L116.7,88.2 M29.4,88.4
	l0.2,0.2L29.4,88.4z"/>
<path class="st1" d="M32.7,88.4l0.2,0.2L32.7,88.4 M37.4,88.4l0.2,0.2L37.4,88.4z"/>
<path class="st0" d="M39.6,88.4v0.7h0.2L39.6,88.4 M64.2,88.4l0.2,0.2L64.2,88.4z"/>
<path class="st1" d="M90.7,88.4l0.2,0.2L90.7,88.4 M92.7,88.4l0.2,0.2L92.7,88.4z"/>
<path class="st0" d="M94.9,88.4l0.2,0.2L94.9,88.4z"/>
<path class="st1" d="M97.4,88.4l0.2,0.2L97.4,88.4 M104.4,88.6l0.1,0.2L104.4,88.6 M111.1,88.6l0.1,0.2L111.1,88.6 M29.4,88.7
	l0.2,0.2L29.4,88.7 M32.4,88.7l0.2,0.2L32.4,88.7z"/>
<path class="st0" d="M61.4,88.7l0.2,0.2L61.4,88.7 M90.5,88.7l0.2,0.2L90.5,88.7z"/>
<path class="st1" d="M92.4,88.7l0.2,0.2L92.4,88.7z"/>
<path class="st0" d="M97.4,88.7l0.2,0.2L97.4,88.7z"/>
<path class="st1" d="M101.9,88.7l0.2,0.2L101.9,88.7 M108.6,88.7l0.2,0.2L108.6,88.7 M29.2,88.9l0.2,0.2L29.2,88.9 M37.1,88.9
	l0.2,0.2L37.1,88.9 M61.4,88.9l0.2,0.2L61.4,88.9 M63.9,88.9l0.2,0.2L63.9,88.9z"/>
<path class="st0" d="M90.2,88.9l0.2,0.2L90.2,88.9 M94.7,88.9l0.2,0.2L94.7,88.9 M104.3,88.9l0.2,0.2L104.3,88.9 M111,88.9l0.2,0.2
	L111,88.9z"/>
<path class="st1" d="M28.9,89.2l0.2,0.2L28.9,89.2z"/>
<path class="st0" d="M32.2,89.2l0.2,0.2L32.2,89.2 M36.9,89.2l0.2,0.2L36.9,89.2 M63.9,89.2l0.2,0.2L63.9,89.2 M90,89.2l0.2,0.2
	L90,89.2 M92.2,89.2l0.2,0.2L92.2,89.2z"/>
<path class="st1" d="M94.7,89.2l0.2,0.2L94.7,89.2 M97.1,89.2l0.2,0.2L97.1,89.2z"/>
<path class="st0" d="M101.6,89.2l0.2,0.2L101.6,89.2 M108.3,89.2l0.2,0.2L108.3,89.2 M28.7,89.4l0.2,0.2L28.7,89.4 M31.9,89.4
	l0.2,0.2L31.9,89.4z"/>
<path class="st1" d="M36.9,89.4l0.2,0.2L36.9,89.4 M39.4,89.6l0.1,0.2L39.4,89.6z"/>
<path class="st0" d="M61.2,89.4l0.2,0.2L61.2,89.4 M91.9,89.4l0.2,0.2L91.9,89.4 M94.4,89.4l0.2,0.2L94.4,89.4 M97.1,89.4l0.2,0.2
	L97.1,89.4z"/>
<path class="st1" d="M101.7,89.6l0.1,0.2L101.7,89.6 M104.1,89.4l0.2,0.2L104.1,89.4 M108.4,89.6l0.1,0.2L108.4,89.6 M110.8,89.4
	l0.2,0.2L110.8,89.4 M28.7,89.7l0.2,0.2L28.7,89.7 M31.7,89.7l0.2,0.2L31.7,89.7 M36.6,89.7l0.2,0.2L36.6,89.7 M61.3,89.8l0.1,0.2
	L61.3,89.8 M63.7,89.7l0.2,0.2L63.7,89.7 M89.7,89.7l0.2,0.2L89.7,89.7 M91.7,89.7l0.2,0.2L91.7,89.7 M94.4,89.7l0.2,0.2L94.4,89.7
	 M97,89.8l0.1,0.2L97,89.8z"/>
<path class="st0" d="M104.1,89.7l0.2,0.2L104.1,89.7 M110.8,89.7l0.2,0.2L110.8,89.7z"/>
<path class="st1" d="M28.5,89.9l0.2,0.2L28.5,89.9 M36.4,89.9l0.2,0.2L36.4,89.9z"/>
<path class="st0" d="M39.4,89.9l0.2,0.2L39.4,89.9 M63.7,89.9l0.2,0.2L63.7,89.9z"/>
<path class="st1" d="M89.5,89.9l0.2,0.2L89.5,89.9 M91.4,89.9l0.2,0.2L91.4,89.9z"/>
<path class="st0" d="M31.4,90.2l0.2,0.2L31.4,90.2z"/>
<path class="st1" d="M36.1,90.2l0.2,0.2L36.1,90.2 M39.1,90.2l0.2,0.2L39.1,90.2z"/>
<path class="st0" d="M89.2,90.2l0.2,0.2L89.2,90.2 M91.4,90.2l0.2,0.2L91.4,90.2 M94.2,90.2l0.2,0.2L94.2,90.2z"/>
<path class="st1" d="M101.4,90.3l0.1,0.2L101.4,90.3 M103.8,90.2l0.2,0.2L103.8,90.2 M108.1,90.3l0.1,0.2L108.1,90.3 M110.5,90.2
	l0.2,0.2L110.5,90.2 M28.2,90.4l0.2,0.2L28.2,90.4 M31.2,90.4l0.2,0.2L31.2,90.4 M35.9,90.4l0.2,0.2L35.9,90.4z"/>
<path class="st0" d="M39.1,90.4l0.2,0.2L39.1,90.4 M60.9,90.4l0.2,0.2L60.9,90.4z"/>
<path class="st1" d="M63.4,90.4l0.2,0.2L63.4,90.4z"/>
<path class="st0" d="M91.2,90.4l0.2,0.2L91.2,90.4z"/>
<path class="st1" d="M94.2,90.4l0.2,0.2L94.2,90.4 M96.7,90.4l0.2,0.2L96.7,90.4z"/>
<path class="st0" d="M103.8,90.4l0.2,0.2L103.8,90.4 M110.5,90.4l0.2,0.2L110.5,90.4 M28,90.7l0.2,0.2L28,90.7z"/>
<path class="st1" d="M35.6,90.7l0.2,0.2L35.6,90.7 M38.9,90.7l0.2,0.2L38.9,90.7 M60.9,90.7l0.2,0.2L60.9,90.7z"/>
<path class="st0" d="M63.4,90.7l0.2,0.2L63.4,90.7z"/>
<path class="st1" d="M89,90.7l0.2,0.2L89,90.7 M90.9,90.7l0.2,0.2L90.9,90.7z"/>
<path class="st0" d="M93.9,90.7l0.2,0.2L93.9,90.7 M96.7,90.7l0.2,0.2L96.7,90.7z"/>
<path class="st1" d="M28,90.9l0.2,0.2L28,90.9z"/>
<path class="st0" d="M30.9,90.9l0.2,0.2L30.9,90.9z"/>
<path class="st1" d="M35.4,90.9l0.2,0.2L35.4,90.9z"/>
<path class="st0" d="M38.9,90.9l0.2,0.2L38.9,90.9 M44.5,91l0.2,0.1L44.5,91z"/>
<path class="st1" d="M45,91l0.2,0.1L45,91z"/>
<path class="st2" d="M45.3,91c-3.4,0.5-5.9,3.8-6.4,7.1c-0.4,2.8,0.9,5.5,4.1,5.1c3.7-0.5,5.9-4.2,6.3-7.6
	C49.8,93,48.1,90.6,45.3,91z"/>
<path class="st1" d="M46.7,91l0.2,0.1L46.7,91z"/>
<path class="st0" d="M47.1,90.9l0.2,0.2L47.1,90.9 M57.2,90.9l0.2,0.2L57.2,90.9z"/>
<path class="st1" d="M57.6,91l0.2,0.1L57.6,91 M59.1,91l0.2,0.1L59.1,91z"/>
<path class="st0" d="M70.6,90.9l0.2,0.2L70.6,90.9z"/>
<path class="st1" d="M70.9,90.9v0.2h0.7L70.9,90.9z"/>
<path class="st2" d="M71.6,91c-7.4,0.9-9.4,14.7-0.2,11.8c0.7-0.2,2.8-1.3,2-2.4c-1-1.2-4.8,3.2-5.6-0.4c-0.2-1,0.7-1.2,1.4-1.4
	c2-0.4,4.1-1,5.2-2.8C75.7,93.7,74.4,90.7,71.6,91z"/>
<path class="st1" d="M72.8,91l0.2,0.1L72.8,91z"/>
<path class="st0" d="M73.1,90.9l0.2,0.2L73.1,90.9 M88.7,90.9l0.2,0.2L88.7,90.9z"/>
<path class="st1" d="M93.9,90.9l0.2,0.2L93.9,90.9z"/>
<path class="st0" d="M101.1,90.9l0.2,0.2L101.1,90.9z"/>
<path class="st1" d="M103.6,90.9l0.2,0.2L103.6,90.9z"/>
<path class="st0" d="M107.8,90.9l0.2,0.2L107.8,90.9z"/>
<path class="st1" d="M110.3,90.9l0.2,0.2L110.3,90.9z"/>
<path class="st0" d="M114.3,90.9l0.2,0.2L114.3,90.9z"/>
<path class="st1" d="M114.7,91l0.2,0.1L114.7,91z"/>
<path class="st2" d="M113.8,91.4c0.2,0.8,0.6,1.6,0.5,2.5c-0.4,2.5-2.8,5-2.4,7.7c0.4,2.8,4,1.6,4.2-0.7
	C111.1,100.7,121.6,88.9,113.8,91.4z"/>
<path class="st1" d="M116.2,91l0.2,0.1L116.2,91z"/>
<path class="st0" d="M116.5,90.9l0.2,0.2L116.5,90.9 M124.7,90.9l0.2,0.2L124.7,90.9z"/>
<path class="st1" d="M125.1,91l0.2,0.1L125.1,91z"/>
<path class="st2" d="M125.9,100.1c-0.8,3.9,4.5,4,4.2,0.7c-1.6,0.5-2.4-0.3-2-2c0.6-2.2,2.5-4.5,2.7-6.7c0.2-1.8-1.9-0.9-2.4,0
	c-4.9-3.1-10.1,3-9.5,8c0.4,2.9,3,4,5.2,2.1C124.8,101.6,125.3,100.8,125.9,100.1z"/>
<path class="st1" d="M126.3,91l0.2,0.1L126.3,91z"/>
<path class="st0" d="M126.7,90.9l0.2,0.2L126.7,90.9z"/>
<path class="st1" d="M129.1,90.9l0.2,0.2L129.1,90.9 M130.1,90.9l0.2,0.2L130.1,90.9z"/>
<path class="st0" d="M130.4,90.9l0.2,0.2L130.4,90.9 M134.4,90.9l0.2,0.2L134.4,90.9z"/>
<path class="st1" d="M134.8,91l0.2,0.1L134.8,91z"/>
<path class="st2" d="M133.9,91.4c0.6,2.9-0.2,5-1.4,7.7c-0.4,0.9-1.6,2.7-0.9,3.6c1.1,1.4,2.2-0.5,2.6-1.4c1.2-2.3,2.5-4.3,4.2-6.2
	c0.5-0.5,1.3-1.7,2.1-1.7c1,0,0.2,1.5,0.1,1.9c-0.8,1.8-2.5,4.6-1.6,6.7c1,2.3,4,1,4.3-1c-4.3,0.5,0.5-5.7,0.4-7.9
	c-0.1-3.2-3.7-1.9-5.1-0.5c-0.8,0.9-1.5,1.8-2.3,2.7C136.9,92.9,137.4,90.3,133.9,91.4z"/>
<path class="st1" d="M136,91l0.2,0.1L136,91z"/>
<path class="st0" d="M140.6,90.9l0.2,0.2L140.6,90.9z"/>
<path class="st1" d="M140.8,90.9l0.2,0.2L140.8,90.9 M142,91l0.2,0.1L142,91z"/>
<path class="st0" d="M142.3,90.9l0.2,0.2L142.3,90.9 M151.5,90.9l0.2,0.2L151.5,90.9z"/>
<path class="st1" d="M151.7,90.9v0.2h0.7L151.7,90.9z"/>
<path class="st2" d="M153.9,99.8c-1.4,0.4-2.8,2.2-4.4,1.5c-3.5-1.3,0.4-7.8,2.5-8.7c0.7-0.3,1.5-0.1,1.6,0.7c0.1,1-1.2,1.7-1.1,2.7
	c0.1,1,1.3,1,1.9,0.6c1.5-1,1.9-3.9,0.4-5.1c-1.3-1.1-3.5-0.6-4.9,0.2c-2.9,1.6-6,6.8-3.6,10C148.4,104.5,153.8,103.3,153.9,99.8z"
	/>
<path class="st1" d="M153.6,91l0.2,0.1L153.6,91z"/>
<path class="st0" d="M153.9,90.9l0.2,0.2L153.9,90.9 M162.9,90.9l0.2,0.2L162.9,90.9z"/>
<path class="st1" d="M163.1,90.9v0.2h0.7L163.1,90.9z"/>
<path class="st2" d="M163.9,91c-7.4,0.9-9.4,14.7-0.2,11.8c0.7-0.2,2.8-1.3,2-2.4c-1-1.2-4.8,3.2-5.6-0.4c-0.2-1,0.7-1.2,1.4-1.4
	c2-0.4,4.1-1,5.2-2.8C167.9,93.7,166.6,90.7,163.9,91z"/>
<path class="st1" d="M165,91l0.2,0.1L165,91z"/>
<path class="st0" d="M165.4,90.9l0.2,0.2L165.4,90.9 M27.7,91.1l0.2,0.2L27.7,91.1z"/>
<path class="st1" d="M30.7,91.1l0.2,0.2L30.7,91.1z"/>
<path class="st0" d="M34.9,91.1l0.2,0.2L34.9,91.1z"/>
<path class="st1" d="M38.6,91.1l0.2,0.2L38.6,91.1 M44,91.2l0.2,0.1L44,91.2z"/>
<path class="st0" d="M47.5,91.1l0.2,0.2L47.5,91.1z"/>
<path class="st1" d="M56.7,91.1l0.2,0.2L56.7,91.1 M59.7,91.1l0.2,0.2L59.7,91.1z"/>
<path class="st0" d="M60.7,91.1l0.2,0.2L60.7,91.1z"/>
<path class="st1" d="M63.3,91.3l0.1,0.2L63.3,91.3 M70.1,91.1l0.2,0.2L70.1,91.1z"/>
<path class="st0" d="M73.6,91.1l0.2,0.2L73.6,91.1 M90.7,91.1l0.2,0.2L90.7,91.1z"/>
<path class="st1" d="M96.4,91.1l0.2,0.2L96.4,91.1 M101.1,91.1l0.2,0.2L101.1,91.1z"/>
<path class="st0" d="M103.6,91.1l0.2,0.2L103.6,91.1z"/>
<path class="st1" d="M107.8,91.1l0.2,0.2L107.8,91.1z"/>
<path class="st0" d="M110.3,91.1l0.2,0.2L110.3,91.1z"/>
<path class="st1" d="M114,91.1l0.2,0.2L114,91.1 M116.7,91.1l0.2,0.2L116.7,91.1z"/>
<path class="st0" d="M123.9,91.1l0.2,0.2L123.9,91.1z"/>
<path class="st1" d="M124.2,91.1l0.2,0.2L124.2,91.1z"/>
<path class="st0" d="M127.2,91.1l0.2,0.2L127.2,91.1 M128.6,91.1l0.2,0.2L128.6,91.1z"/>
<path class="st1" d="M130.6,91.1l0.2,0.2L130.6,91.1 M134.1,91.1l0.2,0.2L134.1,91.1z"/>
<path class="st0" d="M136.6,91.1l0.2,0.2L136.6,91.1 M140.1,91.1l0.2,0.2L140.1,91.1z"/>
<path class="st1" d="M140.3,91.1l0.2,0.2L140.3,91.1z"/>
<path class="st0" d="M142.8,91.1l0.2,0.2L142.8,91.1 M150.7,91.1l0.2,0.2L150.7,91.1z"/>
<path class="st1" d="M151,91.1l0.2,0.2L151,91.1 M154.4,91.1l0.2,0.2L154.4,91.1 M162.4,91.1l0.2,0.2L162.4,91.1z"/>
<path class="st0" d="M165.8,91.1l0.2,0.2L165.8,91.1z"/>
<path class="st1" d="M27.7,91.4l0.2,0.2L27.7,91.4z"/>
<path class="st0" d="M30.7,91.4l0.2,0.2L30.7,91.4 M34.7,91.4l0.2,0.2L34.7,91.4z"/>
<path class="st1" d="M43.3,91.4l0.2,0.2L43.3,91.4z"/>
<path class="st0" d="M48,91.4l0.2,0.2L48,91.4z"/>
<path class="st1" d="M56.2,91.4l0.2,0.2L56.2,91.4 M59.9,91.4l0.2,0.2L59.9,91.4z"/>
<path class="st0" d="M60.2,91.4l0.2,0.2L60.2,91.4z"/>
<path class="st1" d="M60.7,91.4l0.2,0.2L60.7,91.4z"/>
<path class="st0" d="M69.4,91.4l0.2,0.2L69.4,91.4z"/>
<path class="st1" d="M69.6,91.4l0.2,0.2L69.6,91.4 M73.8,91.4l0.2,0.2L73.8,91.4 M88.5,91.4l0.2,0.2L88.5,91.4 M90.5,91.4l0.2,0.2
	L90.5,91.4z"/>
<path class="st0" d="M93.7,91.4l0.2,0.2L93.7,91.4 M96.4,91.4l0.2,0.2L96.4,91.4z"/>
<path class="st1" d="M117,91.4v1.2h0.2L117,91.4z"/>
<path class="st0" d="M123.4,91.4l0.2,0.2L123.4,91.4z"/>
<path class="st1" d="M123.7,91.4l0.2,0.2L123.7,91.4 M127.4,91.4l0.2,0.2L127.4,91.4z"/>
<path class="st0" d="M128.4,91.4l0.2,0.2L128.4,91.4z"/>
<path class="st1" d="M130.9,91.4l0.2,0.2L130.9,91.4z"/>
<path class="st0" d="M136.8,91.4l0.2,0.2L136.8,91.4z"/>
<path class="st1" d="M139.8,91.4l0.2,0.2L139.8,91.4 M143,91.4l0.2,0.2L143,91.4 M150.2,91.4l0.2,0.2L150.2,91.4z"/>
<path class="st0" d="M154.9,91.4l0.2,0.2L154.9,91.4 M161.6,91.4l0.2,0.2L161.6,91.4z"/>
<path class="st1" d="M161.9,91.4l0.2,0.2L161.9,91.4 M166.1,91.4l0.2,0.2L166.1,91.4z"/>
<path class="st0" d="M27.5,91.6l0.2,0.2L27.5,91.6z"/>
<path class="st1" d="M30.4,91.6l0.2,0.2L30.4,91.6z"/>
<path class="st0" d="M38.4,91.6l0.2,0.2L38.4,91.6z"/>
<path class="st1" d="M42.8,91.6l0.2,0.2L42.8,91.6z"/>
<path class="st0" d="M48.3,91.6l0.2,0.2L48.3,91.6 M55.7,91.6l0.2,0.2L55.7,91.6 M60.4,91.6l0.2,0.2L60.4,91.6z"/>
<path class="st1" d="M69.1,91.6l0.2,0.2L69.1,91.6 M74.1,91.6l0.2,0.2L74.1,91.6z"/>
<path class="st0" d="M88.2,91.6l0.2,0.2L88.2,91.6z"/>
<path class="st1" d="M93.7,91.6l0.2,0.2L93.7,91.6z"/>
<path class="st0" d="M100.9,91.6l0.2,0.2L100.9,91.6z"/>
<path class="st1" d="M103.4,91.6l0.2,0.2L103.4,91.6z"/>
<path class="st0" d="M107.6,91.6l0.2,0.2L107.6,91.6z"/>
<path class="st1" d="M110,91.6l0.2,0.2L110,91.6 M113.5,91.6l0.2,0.2L113.5,91.6 M123.2,91.6l0.2,0.2L123.2,91.6 M127.7,91.6
	l0.2,0.2L127.7,91.6 M128.4,91.6l0.2,0.2L128.4,91.6 M133.6,91.6l0.2,0.2L133.6,91.6 M136.8,91.6l0.2,0.2L136.8,91.6z"/>
<path class="st0" d="M139.3,91.6l0.2,0.2L139.3,91.6z"/>
<path class="st1" d="M143.3,91.6l0.2,0.2L143.3,91.6z"/>
<path class="st0" d="M149.7,91.6l0.2,0.2L149.7,91.6 M155.2,91.6l0.2,0.2L155.2,91.6z"/>
<path class="st1" d="M161.4,91.6l0.2,0.2L161.4,91.6 M166.3,91.6l0.2,0.2L166.3,91.6 M27.5,91.9l0.2,0.2L27.5,91.9z"/>
<path class="st0" d="M30.4,91.9l0.2,0.2L30.4,91.9 M34.4,91.9l0.2,0.2L34.4,91.9 M38.1,91.9l0.2,0.2L38.1,91.9 M42.3,91.9l0.2,0.2
	L42.3,91.9z"/>
<path class="st1" d="M42.6,91.9l0.2,0.2L42.6,91.9z"/>
<path class="st0" d="M48.5,91.9l0.2,0.2L48.5,91.9z"/>
<path class="st1" d="M55.5,91.9l0.2,0.2L55.5,91.9 M60.4,91.9l0.2,0.2L60.4,91.9 M63,92.1l0.1,0.2L63,92.1z"/>
<path class="st0" d="M68.6,91.9l0.2,0.2L68.6,91.9z"/>
<path class="st1" d="M68.9,91.9l0.2,0.2L68.9,91.9 M74.3,91.9l0.2,0.2L74.3,91.9z"/>
<path class="st0" d="M90.2,91.9l0.2,0.2L90.2,91.9z"/>
<path class="st1" d="M96.2,91.9l0.2,0.2L96.2,91.9 M100.9,91.9l0.2,0.2L100.9,91.9z"/>
<path class="st0" d="M103.4,91.9l0.2,0.2L103.4,91.9z"/>
<path class="st1" d="M107.6,91.9l0.2,0.2L107.6,91.9z"/>
<path class="st0" d="M110,91.9l0.2,0.2L110,91.9 M113.5,91.9l0.2,0.2L113.5,91.9 M122.7,91.9l0.2,0.2L122.7,91.9z"/>
<path class="st1" d="M128.1,92l0.2,0.1L128.1,92 M130.9,91.9l0.2,0.2L130.9,91.9z"/>
<path class="st0" d="M133.6,91.9l0.2,0.2L133.6,91.9 M137.1,91.9v0.7h0.2L137.1,91.9 M139.1,91.9l0.2,0.2L139.1,91.9 M149.2,91.9
	l0.2,0.2L149.2,91.9z"/>
<path class="st1" d="M149.5,91.9l0.2,0.2L149.5,91.9 M155.2,91.9l0.2,0.2L155.2,91.9z"/>
<path class="st0" d="M160.9,91.9l0.2,0.2L160.9,91.9z"/>
<path class="st1" d="M161.1,91.9l0.2,0.2L161.1,91.9 M166.6,91.9l0.2,0.2L166.6,91.9z"/>
<path class="st0" d="M27.2,92.1l0.2,0.2L27.2,92.1z"/>
<path class="st1" d="M30.2,92.1l0.2,0.2L30.2,92.1 M37.9,92.1l0.2,0.2L37.9,92.1z"/>
<path class="st0" d="M42.1,92.1l0.2,0.2L42.1,92.1z"/>
<path class="st1" d="M45.3,92.1v0.2h1L45.3,92.1z"/>
<path class="st0" d="M55,92.1l0.2,0.2L55,92.1 M68.4,92.1l0.2,0.2L68.4,92.1 M74.6,92.1l0.2,0.2L74.6,92.1z"/>
<path class="st1" d="M88,92.1l0.2,0.2L88,92.1 M90,92.1l0.2,0.2L90,92.1 M93.5,92.3l0.1,0.2L93.5,92.3z"/>
<path class="st0" d="M96.2,92.1l0.2,0.2L96.2,92.1z"/>
<path class="st1" d="M113.8,92.1l0.2,0.2L113.8,92.1 M122.4,92.1l0.2,0.2L122.4,92.1z"/>
<path class="st0" d="M130.9,92.1l0.2,0.2L130.9,92.1z"/>
<path class="st1" d="M133.9,92.1l0.2,0.2L133.9,92.1z"/>
<path class="st0" d="M138.8,92.1l0.2,0.2L138.8,92.1z"/>
<path class="st1" d="M143.5,92.1l0.2,0.2L143.5,92.1z"/>
<path class="st0" d="M149,92.1l0.2,0.2L149,92.1z"/>
<path class="st1" d="M155.4,92.1l0.2,0.2L155.4,92.1z"/>
<path class="st0" d="M160.6,92.1l0.2,0.2L160.6,92.1 M166.8,92.1l0.2,0.2L166.8,92.1z"/>
<path class="st1" d="M27.2,92.4l0.2,0.2L27.2,92.4z"/>
<path class="st0" d="M30.2,92.4l0.2,0.2L30.2,92.4z"/>
<path class="st1" d="M34.7,92.4l0.2,0.2L34.7,92.4 M37.6,92.4l0.2,0.2L37.6,92.4 M41.8,92.4l0.2,0.2L41.8,92.4 M44.8,92.4l-0.2,0.5
	L44.8,92.4z"/>
<path class="st0" d="M45.1,92.4l0.2,0.2L45.1,92.4z"/>
<path class="st3" d="M43.1,94.9h3.7C46.8,91.4,44.4,92.7,43.1,94.9z"/>
<path class="st0" d="M46.3,92.4l0.2,0.2L46.3,92.4z"/>
<path class="st1" d="M48.8,92.4l0.2,0.2L48.8,92.4z"/>
<path class="st0" d="M54.7,92.4l0.2,0.2L54.7,92.4z"/>
<path class="st1" d="M57.7,92.4l0.2,0.2L57.7,92.4z"/>
<path class="st0" d="M58.1,92.5l0.2,0.1L58.1,92.5z"/>
<path class="st3" d="M55.7,94.9h4C60,91.4,56.8,92.6,55.7,94.9z"/>
<path class="st0" d="M59,92.4l0.2,0.2L59,92.4z"/>
<path class="st1" d="M59.2,92.4l0.2,0.2L59.2,92.4 M68.1,92.4l0.2,0.2L68.1,92.4 M70.9,92.4l0.2,0.2L70.9,92.4z"/>
<path class="st0" d="M71.3,92.5l0.2,0.1L71.3,92.5z"/>
<path class="st3" d="M69.1,94.9h3.2C73,91.5,70.1,92.8,69.1,94.9z"/>
<path class="st1" d="M72.1,92.4l0.2,0.2L72.1,92.4 M74.6,92.4l0.2,0.2L74.6,92.4z"/>
<path class="st0" d="M87.7,92.4l0.2,0.2L87.7,92.4 M90,92.4l0.2,0.2L90,92.4z"/>
<path class="st1" d="M96,92.6l0.1,0.2L96,92.6z"/>
<path class="st0" d="M100.6,92.4l0.2,0.2L100.6,92.4z"/>
<path class="st1" d="M103.1,92.4l0.2,0.2L103.1,92.4z"/>
<path class="st0" d="M107.3,92.4l0.2,0.2L107.3,92.4z"/>
<path class="st1" d="M109.8,92.4l0.2,0.2L109.8,92.4 M114,92.4l0.2,0.2L114,92.4 M122.2,92.4l0.2,0.2L122.2,92.4 M125.2,92.4
	l0.2,0.2L125.2,92.4z"/>
<path class="st0" d="M125.4,92.4l0.2,0.2L125.4,92.4z"/>
<path class="st3" d="M123.2,94.9c1,0,2.5,0.3,3.4-0.1c0.8-0.4,0.6-1.8-0.2-2.1C125,92.1,123.7,93.9,123.2,94.9z"/>
<path class="st0" d="M126.4,92.4l0.2,0.2L126.4,92.4z"/>
<path class="st1" d="M130.6,92.4l0.2,0.2L130.6,92.4 M134.1,92.4l0.2,0.2L134.1,92.4z"/>
<path class="st0" d="M138.6,92.4l0.2,0.2L138.6,92.4z"/>
<path class="st1" d="M148.7,92.4l0.2,0.2L148.7,92.4 M152,92.4l0.2,0.2L152,92.4z"/>
<path class="st0" d="M152.2,92.4l0.2,0.2L152.2,92.4z"/>
<path class="st3" d="M150,94.9c0.7,0,1.3,0,2,0c0.8-0.1,2.3-1.1,1.3-2C152.1,91.7,150.4,94,150,94.9z"/>
<path class="st0" d="M153.1,92.5l0.2,0.1L153.1,92.5z"/>
<path class="st1" d="M160.4,92.4l0.2,0.2L160.4,92.4 M163.1,92.4l0.2,0.2L163.1,92.4z"/>
<path class="st0" d="M163.5,92.5l0.2,0.1L163.5,92.5z"/>
<path class="st3" d="M161.4,94.9h3.2C165.2,91.5,162.4,92.8,161.4,94.9z"/>
<path class="st1" d="M164.4,92.4l0.2,0.2L164.4,92.4 M166.8,92.4l0.2,0.2L166.8,92.4 M34.9,92.6l0.2,0.2L34.9,92.6z"/>
<path class="st0" d="M37.4,92.6l0.2,0.2L37.4,92.6z"/>
<path class="st1" d="M41.6,92.6l0.2,0.2L41.6,92.6 M46.6,92.6l0.2,0.2L46.6,92.6z"/>
<path class="st0" d="M49,92.6l0.2,0.2L49,92.6z"/>
<path class="st1" d="M54.5,92.6l0.2,0.2L54.5,92.6z"/>
<path class="st0" d="M57.5,92.6l0.2,0.2L57.5,92.6z"/>
<path class="st1" d="M59.5,92.6l0.2,0.2L59.5,92.6 M62.8,92.8l0.1,0.2L62.8,92.8 M67.9,92.6l0.2,0.2L67.9,92.6z"/>
<path class="st0" d="M70.6,92.6l0.2,0.2L70.6,92.6z"/>
<path class="st1" d="M72.3,92.6l0.2,0.2L72.3,92.6 M89.7,92.6l0.2,0.2L89.7,92.6z"/>
<path class="st0" d="M93.2,92.6l0.2,0.2L93.2,92.6z"/>
<path class="st1" d="M100.6,92.6l0.2,0.2L100.6,92.6z"/>
<path class="st0" d="M103.1,92.6l0.2,0.2L103.1,92.6z"/>
<path class="st1" d="M107.3,92.6l0.2,0.2L107.3,92.6z"/>
<path class="st0" d="M109.8,92.6l0.2,0.2L109.8,92.6 M117.1,92.8l0.1,0.2L117.1,92.8z"/>
<path class="st1" d="M122,92.6l0.2,0.2L122,92.6 M124.7,92.6l0.2,0.2L124.7,92.6z"/>
<path class="st0" d="M124.9,92.6l0.2,0.2L124.9,92.6 M130.6,92.6l0.2,0.2L130.6,92.6z"/>
<path class="st1" d="M148.5,92.6l0.2,0.2L148.5,92.6 M151.5,92.6l0.2,0.2L151.5,92.6z"/>
<path class="st0" d="M153.4,92.6l0.2,0.2L153.4,92.6 M155.7,92.6l0.2,0.2L155.7,92.6z"/>
<path class="st1" d="M160.1,92.6l0.2,0.2L160.1,92.6z"/>
<path class="st0" d="M162.9,92.6l0.2,0.2L162.9,92.6z"/>
<path class="st1" d="M164.6,92.6l0.2,0.2L164.6,92.6z"/>
<path class="st0" d="M27,92.9l0.2,0.2L27,92.9 M29.9,92.9l0.2,0.2L29.9,92.9z"/>
<path class="st1" d="M35.1,92.9l0.2,0.2L35.1,92.9 M36.9,92.9l0.2,0.2L36.9,92.9 M41.3,92.9l0.2,0.2L41.3,92.9z"/>
<path class="st0" d="M44.3,92.9l0.2,0.2L44.3,92.9 M46.6,92.9l0.2,0.2L46.6,92.9z"/>
<path class="st1" d="M49,92.9l0.2,0.2L49,92.9 M54.2,92.9l0.2,0.2L54.2,92.9 M57,92.9l0.2,0.2L57,92.9 M67.6,92.9l0.2,0.2L67.6,92.9
	z"/>
<path class="st0" d="M70.4,92.9l0.2,0.2L70.4,92.9 M74.8,92.9l0.2,0.2L74.8,92.9z"/>
<path class="st1" d="M87.5,92.9l0.2,0.2L87.5,92.9 M93.2,92.9l0.2,0.2L93.2,92.9 M114.3,92.9v0.7h0.2L114.3,92.9 M124.4,92.9
	l0.2,0.2L124.4,92.9z"/>
<path class="st0" d="M126.9,92.9l0.2,0.2L126.9,92.9z"/>
<path class="st1" d="M130.4,92.9l0.2,0.2L130.4,92.9 M134.4,93l0.1,0.2L134.4,93z"/>
<path class="st0" d="M143.8,92.9l0.2,0.2L143.8,92.9z"/>
<path class="st1" d="M148.2,92.9l0.2,0.2L148.2,92.9z"/>
<path class="st0" d="M151.2,92.9l0.2,0.2L151.2,92.9z"/>
<path class="st1" d="M155.8,93l0.1,0.2L155.8,93 M159.9,92.9l0.2,0.2L159.9,92.9z"/>
<path class="st0" d="M162.6,92.9l0.2,0.2L162.6,92.9 M167.1,92.9l0.2,0.2L167.1,92.9z"/>
<path class="st1" d="M27,93.1l0.2,0.2L27,93.1z"/>
<path class="st0" d="M35.4,93.1l0.2,0.2L35.4,93.1z"/>
<path class="st1" d="M35.6,93.1v0.2h1L35.6,93.1z"/>
<path class="st0" d="M36.6,93.1l0.2,0.2L36.6,93.1z"/>
<path class="st1" d="M41.1,93.1l0.2,0.2L41.1,93.1z"/>
<path class="st0" d="M44.1,93.1l0.2,0.2L44.1,93.1z"/>
<path class="st1" d="M54,93.1l0.2,0.2L54,93.1 M56.7,93.1l0.2,0.2L56.7,93.1 M59.7,93.1l0.2,0.2L59.7,93.1z"/>
<path class="st0" d="M62.7,93.1l0.2,0.2L62.7,93.1z"/>
<path class="st1" d="M67.4,93.1l0.2,0.2L67.4,93.1 M74.8,93.1v1.5h0.2L74.8,93.1z"/>
<path class="st0" d="M87.2,93.1l0.2,0.2L87.2,93.1 M89.5,93.1l0.2,0.2L89.5,93.1z"/>
<path class="st1" d="M95.7,93.1l0.2,0.2L95.7,93.1z"/>
<path class="st0" d="M100.4,93.1l0.2,0.2L100.4,93.1z"/>
<path class="st1" d="M102.9,93.1l0.2,0.2L102.9,93.1z"/>
<path class="st0" d="M107.1,93.1l0.2,0.2L107.1,93.1z"/>
<path class="st1" d="M109.6,93.1l0.2,0.2L109.6,93.1 M116.8,93.3l0.1,0.2L116.8,93.3 M121.5,93.1l0.2,0.2L121.5,93.1z"/>
<path class="st0" d="M124.2,93.1l0.2,0.2L124.2,93.1z"/>
<path class="st1" d="M127.2,93.3l0.1,0.2L127.2,93.3z"/>
<path class="st0" d="M130.4,93.1l0.2,0.2L130.4,93.1z"/>
<path class="st1" d="M136.8,93.1l0.2,0.2L136.8,93.1 M138.1,93.1l0.2,0.2L138.1,93.1 M140.1,93.1l0.2,0.2L140.1,93.1z"/>
<path class="st3" d="M138.8,94.9c1.4,0,2.4-0.1,2-1.7L138.8,94.9z"/>
<path class="st0" d="M140.8,93.1l0.2,0.2L140.8,93.1z"/>
<path class="st1" d="M148,93.1l0.2,0.2L148,93.1z"/>
<path class="st0" d="M151,93.1l0.2,0.2L151,93.1z"/>
<path class="st1" d="M159.6,93.1l0.2,0.2L159.6,93.1 M167.1,93.1v1.5h0.2L167.1,93.1z"/>
<path class="st0" d="M26.8,93.5l0.1,0.2L26.8,93.5z"/>
<path class="st1" d="M29.7,93.4l0.2,0.2L29.7,93.4z"/>
<path class="st0" d="M40.9,93.4l0.2,0.2L40.9,93.4z"/>
<path class="st1" d="M43.8,93.4l0.2,0.2L43.8,93.4 M46.8,93.4v1.5h0.2L46.8,93.4z"/>
<path class="st0" d="M49.3,93.4l0.2,0.2L49.3,93.4z"/>
<path class="st1" d="M53.7,93.4l0.2,0.2L53.7,93.4z"/>
<path class="st0" d="M56.5,93.4l0.2,0.2L56.5,93.4 M59.7,93.4l0.2,0.2L59.7,93.4z"/>
<path class="st1" d="M67.1,93.4l0.2,0.2L67.1,93.4 M72.6,93.4l0.2,0.2L72.6,93.4 M87.2,93.4l0.2,0.2L87.2,93.4 M89.2,93.4l0.7,0.5
	v-0.2L89.2,93.4z"/>
<path class="st0" d="M90.6,93.5l0.2,0.1L90.6,93.5z"/>
<path class="st1" d="M90.9,93.4v0.2h1.2L90.9,93.4 M97.1,93.4v0.2l0.7,0.2L97.1,93.4z"/>
<path class="st0" d="M97.6,93.4l0.2,0.2L97.6,93.4z"/>
<path class="st1" d="M100.4,93.4l0.2,0.2L100.4,93.4z"/>
<path class="st0" d="M102.9,93.4l0.2,0.2L102.9,93.4z"/>
<path class="st1" d="M107.1,93.4l0.2,0.2L107.1,93.4z"/>
<path class="st0" d="M109.6,93.4l0.2,0.2L109.6,93.4 M123.9,93.4l0.2,0.2L123.9,93.4 M136.8,93.4l0.2,0.2L136.8,93.4z"/>
<path class="st1" d="M137.8,93.4l0.2,0.2L137.8,93.4z"/>
<path class="st0" d="M139.8,93.4l0.2,0.2L139.8,93.4z"/>
<path class="st1" d="M141,93.4v0.7h0.2L141,93.4 M147.7,93.4l0.2,0.2L147.7,93.4 M159.4,93.4l0.2,0.2L159.4,93.4 M164.9,93.4
	l0.2,0.2L164.9,93.4z"/>
<path class="st0" d="M29.7,93.6l0.2,0.2L29.7,93.6 M40.6,93.6l0.2,0.2L40.6,93.6z"/>
<path class="st1" d="M43.6,93.6l0.2,0.2L43.6,93.6 M49.4,93.8l0.1,0.2L49.4,93.8z"/>
<path class="st0" d="M53.5,93.6l0.2,0.2L53.5,93.6 M56.2,93.6l0.2,0.2L56.2,93.6z"/>
<path class="st1" d="M62.4,93.6l0.2,0.2L62.4,93.6z"/>
<path class="st0" d="M66.9,93.6l0.2,0.2L66.9,93.6 M69.6,93.6l0.2,0.2L69.6,93.6 M87,93.6l0.2,0.2L87,93.6 M116.7,93.6l0.2,0.2
	L116.7,93.6z"/>
<path class="st1" d="M121,93.6l0.2,0.2L121,93.6z"/>
<path class="st0" d="M123.7,93.6l0.2,0.2L123.7,93.6 M127.2,93.6l0.2,0.2L127.2,93.6 M130.1,93.6l0.2,0.2L130.1,93.6z"/>
<path class="st1" d="M137.6,93.6l0.2,0.2L137.6,93.6z"/>
<path class="st0" d="M139.6,93.6l0.2,0.2L139.6,93.6z"/>
<path class="st1" d="M147.5,93.6l0.2,0.2L147.5,93.6z"/>
<path class="st0" d="M150.5,93.6l0.2,0.2L150.5,93.6 M153.4,93.6l0.2,0.2L153.4,93.6z"/>
<path class="st1" d="M155.7,93.6v1h0.2L155.7,93.6z"/>
<path class="st0" d="M159.2,93.6l0.2,0.2L159.2,93.6 M161.9,93.6l0.2,0.2L161.9,93.6z"/>
<path class="st1" d="M26.7,93.9l0.2,0.2L26.7,93.9 M43.3,93.9l0.2,0.2L43.3,93.9z"/>
<path class="st0" d="M53.3,93.9l0.2,0.2L53.3,93.9z"/>
<path class="st1" d="M56,93.9l0.2,0.2L56,93.9z"/>
<path class="st0" d="M59.7,93.9l0.2,0.2L59.7,93.9 M62.4,93.9l0.2,0.2L62.4,93.9 M66.6,93.9l0.2,0.2L66.6,93.9z"/>
<path class="st1" d="M69.4,93.9l0.2,0.2L69.4,93.9z"/>
<path class="st0" d="M100.1,93.9l0.2,0.2L100.1,93.9z"/>
<path class="st1" d="M102.6,93.9l0.2,0.2L102.6,93.9z"/>
<path class="st0" d="M106.8,93.9l0.2,0.2L106.8,93.9z"/>
<path class="st1" d="M109.3,93.9l0.2,0.2L109.3,93.9z"/>
<path class="st0" d="M114,93.9l0.2,0.2L114,93.9z"/>
<path class="st1" d="M116.5,93.9l0.2,0.2L116.5,93.9 M120.7,93.9l0.2,0.2L120.7,93.9z"/>
<path class="st0" d="M123.4,93.9l0.2,0.2L123.4,93.9z"/>
<path class="st1" d="M127.2,93.9l0.2,0.2L127.2,93.9z"/>
<path class="st0" d="M134.1,93.9l0.2,0.2L134.1,93.9z"/>
<path class="st1" d="M136.6,93.9l0.2,0.2L136.6,93.9z"/>
<path class="st0" d="M137.3,93.9l0.2,0.2L137.3,93.9 M139.3,93.9l0.2,0.2L139.3,93.9z"/>
<path class="st1" d="M143.6,94l0.1,0.2L143.6,94z"/>
<path class="st0" d="M147.2,93.9l0.2,0.2L147.2,93.9 M150.2,93.9l0.2,0.2L150.2,93.9z"/>
<path class="st1" d="M153.4,93.9l0.2,0.2L153.4,93.9z"/>
<path class="st0" d="M158.9,93.9l0.2,0.2L158.9,93.9z"/>
<path class="st1" d="M161.6,93.9l0.2,0.2L161.6,93.9 M29.4,94.1l0.2,0.2L29.4,94.1 M40.4,94.1l0.2,0.2L40.4,94.1z"/>
<path class="st0" d="M43.3,94.1l0.2,0.2L43.3,94.1z"/>
<path class="st1" d="M53.3,94.1l0.2,0.2L53.3,94.1 M55.7,94.1l0.2,0.2L55.7,94.1 M59.8,94.3l0.1,0.2L59.8,94.3z"/>
<path class="st0" d="M72.3,94.1l0.2,0.2L72.3,94.1 M86.5,94.1l0.2,0.2L86.5,94.1z"/>
<path class="st1" d="M86.7,94.1l0.2,0.2L86.7,94.1 M97.7,94.3l0.1,0.2L97.7,94.3 M100.1,94.1l0.2,0.2L100.1,94.1z"/>
<path class="st0" d="M102.6,94.1l0.2,0.2L102.6,94.1z"/>
<path class="st1" d="M106.8,94.1l0.2,0.2L106.8,94.1z"/>
<path class="st0" d="M109.3,94.1l0.2,0.2L109.3,94.1z"/>
<path class="st1" d="M114.1,94.3l0.1,0.2L114.1,94.3z"/>
<path class="st0" d="M116.5,94.1l0.2,0.2L116.5,94.1 M120.5,94.1l0.2,0.2L120.5,94.1z"/>
<path class="st1" d="M123.2,94.1l0.2,0.2L123.2,94.1 M129.9,94.1l0.2,0.2L129.9,94.1 M134.2,94.3l0.1,0.2L134.2,94.3z"/>
<path class="st0" d="M136.6,94.1l0.2,0.2L136.6,94.1 M139.1,94.1l0.2,0.2L139.1,94.1z"/>
<path class="st1" d="M150,94.1l0.2,0.2L150,94.1z"/>
<path class="st0" d="M164.6,94.1l0.2,0.2L164.6,94.1 M26.5,94.4l0.2,0.2L26.5,94.4 M29.4,94.4l0.2,0.2L29.4,94.4 M40.1,94.4l0.2,0.2
	L40.1,94.4z"/>
<path class="st1" d="M43.1,94.4l0.2,0.2L43.1,94.4 M53,94.4l0.2,0.2L53,94.4 M62.2,94.4l0.2,0.2L62.2,94.4 M66.4,94.4l0.2,0.2
	L66.4,94.4z"/>
<path class="st0" d="M69.1,94.4l0.2,0.2L69.1,94.4z"/>
<path class="st1" d="M72.3,94.4l0.2,0.2L72.3,94.4z"/>
<path class="st0" d="M85.7,94.4l0.2,0.2L85.7,94.4z"/>
<path class="st1" d="M86,94.4l0.2,0.2L86,94.4z"/>
<path class="st0" d="M126.9,94.4l0.2,0.2L126.9,94.4z"/>
<path class="st1" d="M137.1,94.4l0.2,0.2L137.1,94.4z"/>
<path class="st0" d="M138.8,94.4l0.2,0.2L138.8,94.4 M140.8,94.4l0.2,0.2L140.8,94.4 M143.5,94.4l0.2,0.2L143.5,94.4z"/>
<path class="st1" d="M147,94.4l0.2,0.2L147,94.4 M149.7,94.4l0.2,0.2L149.7,94.4 M153.2,94.4l0.2,0.2L153.2,94.4 M158.7,94.4
	l0.2,0.2L158.7,94.4z"/>
<path class="st0" d="M161.4,94.4l0.2,0.2L161.4,94.4z"/>
<path class="st1" d="M164.6,94.4l0.2,0.2L164.6,94.4 M26.5,94.8l0.1,0.2L26.5,94.8 M42.8,94.6l-0.2,0.7L42.8,94.6z"/>
<path class="st0" d="M52.8,94.6l0.2,0.2L52.8,94.6 M55.5,94.6l4,0.5v-0.2L55.5,94.6 M62.2,94.6l4,0.5v-0.2L62.2,94.6 M66.1,94.6
	l0.2,0.2L66.1,94.6z"/>
<path class="st1" d="M68.9,94.6l0.2,0.2L68.9,94.6z"/>
<path class="st0" d="M74.8,94.6l2.7,0.5H85v-0.2L74.8,94.6 M85.2,94.6l0.2,0.2L85.2,94.6 M99.9,94.6l-2.5,0.2v0.2l2.7-0.2L99.9,94.6
	z"/>
<path class="st1" d="M102.4,94.6l0.2,0.2L102.4,94.6z"/>
<path class="st0" d="M106.6,94.6l-4.2,0.2v0.2l4.5-0.2L106.6,94.6z"/>
<path class="st1" d="M109.1,94.6l0.2,0.2L109.1,94.6z"/>
<path class="st0" d="M113.8,94.6l-4.7,0.2v0.2l5-0.2L113.8,94.6z"/>
<path class="st1" d="M116.2,94.6l0.2,0.2L116.2,94.6 M120.2,94.6l0.2,0.2L120.2,94.6z"/>
<path class="st0" d="M122.9,94.6l4,0.5v-0.2L122.9,94.6z"/>
<path class="st1" d="M126.9,94.6l0.2,0.2L126.9,94.6 M129.6,94.6l0.2,0.2L129.6,94.6 M136.3,94.6l0.5,0.5L136.3,94.6 M136.8,94.6
	l0.2,0.2L136.8,94.6z"/>
<path class="st0" d="M138.6,94.6l2,0.5v-0.2L138.6,94.6z"/>
<path class="st1" d="M143.4,94.8l0.1,0.2L143.4,94.8z"/>
<path class="st0" d="M146.8,94.6l0.2,0.2L146.8,94.6 M149.7,94.6l3.2,0.5v-0.2L149.7,94.6 M153,94.6l0.2,0.2L153,94.6 M155.7,94.6
	l2.7,0.5v-0.2L155.7,94.6 M158.4,94.6l0.2,0.2L158.4,94.6z"/>
<path class="st1" d="M161.1,94.6l0.2,0.2L161.1,94.6z"/>
<path class="st0" d="M167.1,94.6c1.2,1.4,6.4,0.5,8.2,0.5v-0.2L167.1,94.6 M16.8,94.9v0.2h9.7C23.9,94,19.6,94.9,16.8,94.9z"/>
<path class="st1" d="M29.3,95l0.1,0.2L29.3,95z"/>
<path class="st0" d="M29.4,94.9v0.2h10.4C37.1,94,32.4,94.9,29.4,94.9z"/>
<path class="st1" d="M39.9,94.9l0.2,0.2L39.9,94.9z"/>
<path class="st0" d="M43.1,94.9v0.2h3.7L43.1,94.9 M49.5,94.9v0.2h3.2L49.5,94.9z"/>
<path class="st1" d="M55.2,94.9l0.2,0.2L55.2,94.9 M59.5,95l0.1,0.2L59.5,95z"/>
<path class="st0" d="M68.9,94.9v0.2h3.2L68.9,94.9z"/>
<path class="st1" d="M72.1,94.9l0.2,0.2L72.1,94.9 M85,94.9l0.2,0.2L85,94.9 M99.9,94.9l0.2,0.2L99.9,94.9 M106.6,94.9l0.2,0.2
	L106.6,94.9 M113.8,94.9l0.2,0.2L113.8,94.9z"/>
<path class="st0" d="M116.2,94.9v0.2h4L116.2,94.9z"/>
<path class="st1" d="M122.7,94.9l0.2,0.2L122.7,94.9z"/>
<path class="st0" d="M129.6,94.9v0.2h4.2L129.6,94.9z"/>
<path class="st1" d="M133.9,95l0.1,0.2L133.9,95z"/>
<path class="st0" d="M136.3,94.9l0.2,0.2L136.3,94.9z"/>
<path class="st1" d="M138.3,94.9l-0.2,0.5L138.3,94.9 M140.6,94.9l-0.2,1h0.2V94.9z"/>
<path class="st0" d="M143.5,94.9v0.2h3.2L143.5,94.9z"/>
<path class="st1" d="M149.5,94.9l0.2,0.2L149.5,94.9z"/>
<path class="st0" d="M161.1,94.9v0.2h3.2L161.1,94.9z"/>
<path class="st1" d="M164.4,94.9l0.2,0.2L164.4,94.9z"/>
<path class="st4" d="M159.9,98.8c0.1,4.1,3.5,2.1,5.7,1c0.7,3.4-4.8,4.4-6.9,2.6c-2.5-2-1.2-4.8-0.5-7.3c-2.2,0-2.4,1.3-4.2,1.8
	c-1.1,0.3-1.8-0.7-1.2-1.5v-0.2c-0.9,0-2.3-0.3-3.1,0.3c-2.5,1.8-1.6,7.7,2.3,5.6c0.6-0.3,1.1-0.8,1.5-1.4h0.2c1,3.1-4,4.5-6.2,3.2
	c-3-1.8-1.7-5.1-1-7.7c-0.9,0-2.5-0.3-3.2,0.4c-1.5,1.6-3.4,6.3,0.2,5.3c-0.5,2.4-3.7,3.5-4.7,0.7c-0.7-2,1.1-4.6,1.8-6.4
	c-4.8,0-4.5,5.1-7.3,7.6c-0.8,0.7-1.9,0.2-1.9-0.9c0-1.1,1-2.5,1.4-3.5c0.4-1.1,0.8-2.1,1.1-3.2c-1.1,0-3.4-0.4-4.2,0.4
	c-1.6,1.6-2.6,5.9,0.8,5.3c-0.7,3.2-4.5,3.1-4.7-0.2h-0.2c-1.9,2.4-5.8,4.2-6.6-0.2c-0.3-1.8,0.5-3.5,1.2-5.2c-1,0-3-0.4-3.8,0.4
	c-1.5,1.5-3,5.3,0,5.3c-0.4,2.2-3.6,3.6-4.4,0.8c-0.6-2,1.3-4.7,2-6.5c-1.2,0-3.3-0.4-4.4,0.1c-1.4,0.7-1.8,4.7-1.6,6.1l2-0.5
	c-0.5,2.3-3.7,3.5-4.6,0.7c-0.6-2,0.9-4.5,1.3-6.4c-1.1,0-2.9-0.3-3.9,0.1c-1.4,0.7-1.8,4.7-1.6,6.1l2-0.5c-0.5,2.3-3.7,3.5-4.6,0.7
	c-0.6-2,0.9-4.5,1.3-6.4l-4.7,0.5c-0.4,1.8-2.2,6.4,1.2,5.2c0.1,2.2-2.9,3.4-4.3,1.5c-1.3-1.8-0.1-4.8,0.3-6.7
	c-1.1,0-3.1-0.4-4.1,0.3c-1.9,1.2-2.4,4.8-4.1,6.4c-1.2,1.1-2.6,1.4-3.4-0.2c2.5-0.8,3.9-3.7,5-6l-1.5-0.2l0.5-0.7
	c-2.8,0-6.7-0.7-9.4,0.1c-1,0.3-1.7,1.6-2.5,2.2c-1.5,1.1-3.4,1.4-5.2,1.4c0.1,4.1,3.5,2.1,5.7,1c0.7,3.4-4.8,4.4-6.9,2.6
	c-2.5-2-1.2-4.8-0.5-7.3c-0.9,0-3-0.4-3.7,0.4c-1.4,1.6-2.3,6.3,1,5.3c-0.5,3.3-4.2,2.8-4.7-0.2h-0.2c-1.7,2.2-5.8,4.4-6.8,0.2
	c-0.5-2.1,0.6-3.8,1.1-5.7h-3c-0.1,3.2-2.3,6.5-5.2,7.8c-3,1.3-5.9-1.1-5.6-4.3c0.1-1.3,0.6-2.4,1.1-3.5h-7.4
	c-0.8,0-2.2-0.3-2.8,0.3c-1.4,1.1-0.7,5.3,0.9,5.9c1.8,0.8,3.8-1,5.2-2c1.1,3.2-3.8,4.5-6.2,3.8c-3.6-1.1-3.5-5-3-8
	c-4.6,0-10.3-1-14.4,1.7c-7.1,4.6-6.7,15.5,1,19.3c3.6,1.8,8.3,1.1,12.2,1.1H50h86.3h27c4.2,0,9.3,0.8,13.4-0.2
	c9.7-2.3,11.9-16.4,2.5-20.8c-2.7-1.3-5.5-1.1-8.4-1.1c-1,0-2.5-0.3-3.4,0.1c-0.8,0.4-1.4,1.4-2.1,2
	C163.8,98.4,161.8,98.8,159.9,98.8 M46.8,95.1c-1.1,0-2.9-0.4-3.9,0.3c-1.2,0.8-2.4,5.2-1,6.2C44.5,103.2,46.5,96.6,46.8,95.1z"/>
<path class="st1" d="M52.5,95.1l0.2,0.2L52.5,95.1z"/>
<path class="st4" d="M59.5,95.1c-1.1,0-3.1-0.4-4.1,0.3c-1.1,0.8-2.3,5.1-0.8,5.9C56.8,102.5,59.1,96.5,59.5,95.1z"/>
<path class="st1" d="M65.9,95.1l0.2,0.2L65.9,95.1 M68.6,95.1l0.2,0.2L68.6,95.1z"/>
<path class="st4" d="M67.9,97.6c1.6-0.2,3.2-1,4-2.5C69.5,95.1,68.7,95.2,67.9,97.6z"/>
<path class="st1" d="M71.9,95.1l0.2,0.2L71.9,95.1 M74.7,95.3l0.1,0.2L74.7,95.3 M96.9,95.1l0.2,0.2L96.9,95.1 M116,95.1l0.2,0.2
	L116,95.1z"/>
<path class="st4" d="M126.7,95.1c-1,0-2.9-0.4-3.8,0.3c-1,0.7-2.2,5.2-0.8,5.9C124.1,102.4,126.4,96.5,126.7,95.1z"/>
<path class="st1" d="M126.7,95.3l0.1,0.2L126.7,95.3 M129.5,95.3l0.1,0.2L129.5,95.3z"/>
<path class="st4" d="M136.3,95.1l0.2,0.2L136.3,95.1z"/>
<path class="st1" d="M146.5,95.1l0.2,0.2L146.5,95.1 M155.4,95.1l0.2,0.2L155.4,95.1 M158.2,95.1l0.2,0.2L158.2,95.1 M160.9,95.1
	l0.2,0.2L160.9,95.1z"/>
<path class="st4" d="M160.1,97.6c1.6-0.2,3.2-1,4-2.5C161.8,95.1,160.9,95.2,160.1,97.6z"/>
<path class="st1" d="M164.1,95.1l0.2,0.2L164.1,95.1 M166.9,95.3l0.1,0.2L166.9,95.3z"/>
<path class="st0" d="M176.7,95.2l0.2,0.1L176.7,95.2 M14.7,95.4l0.2,0.1L14.7,95.4z"/>
<path class="st1" d="M39.6,95.4l0.2,0.2L39.6,95.4 M55,95.4l0.2,0.2L55,95.4 M61.9,95.4l0.2,0.2L61.9,95.4 M95.9,95.4v0.2h0.7
	L95.9,95.4 M102.1,95.4l0.2,0.2L102.1,95.4 M108.8,95.4l0.2,0.2L108.8,95.4 M113.5,95.4l0.2,0.2L113.5,95.4 M119.7,95.4l0.2,0.2
	L119.7,95.4 M122.4,95.4l0.2,0.2L122.4,95.4z"/>
<path class="st4" d="M136.1,95.4l0.2,0.2L136.1,95.4z"/>
<path class="st1" d="M143,95.4l0.2,0.2L143,95.4 M149.2,95.4l0.2,0.2L149.2,95.4 M152.3,95.5l0.1,0.2L152.3,95.5z"/>
<path class="st0" d="M177.4,95.4l0.2,0.1L177.4,95.4 M14,95.7l0.2,0.1L14,95.7z"/>
<path class="st1" d="M26.2,95.6v0.7h0.2L26.2,95.6 M42.3,95.6l0.2,0.2L42.3,95.6 M46.6,95.8l0.1,0.2L46.6,95.8 M49.3,95.6v1h0.2
	L49.3,95.6 M59.3,95.8l0.1,0.2L59.3,95.8 M65.7,95.6l0.2,0.2L65.7,95.6 M68.5,95.8l0.1,0.2L68.5,95.8 M74.3,95.6l0.2,0.2L74.3,95.6
	 M84.3,95.6l0.2,0.2L84.3,95.6 M88,95.6l0.2,0.2L88,95.6 M92.4,95.6l0.2,0.2L92.4,95.6 M99.6,95.6l0.2,0.2L99.6,95.6 M106.3,95.6
	l0.2,0.2L106.3,95.6 M115.8,95.8l0.1,0.2L115.8,95.8 M129.2,95.8l0.1,0.2L129.2,95.8 M133.7,95.8l0.1,0.2L133.7,95.8 M136.1,95.6
	l0.2,0.2L136.1,95.6 M146.3,95.6l0.2,0.2L146.3,95.6 M155.2,95.6l0.2,0.2L155.2,95.6 M157.9,95.6l0.2,0.2L157.9,95.6 M160.7,95.8
	l0.1,0.2L160.7,95.8 M166.6,95.6l0.2,0.2L166.6,95.6z"/>
<path class="st0" d="M178.2,95.7l0.2,0.1L178.2,95.7 M13.3,95.9l0.2,0.2L13.3,95.9z"/>
<path class="st1" d="M28.9,95.9v1h0.2L28.9,95.9 M39.4,95.9l0.2,0.2L39.4,95.9 M54.7,95.9l0.2,0.2L54.7,95.9 M84.5,95.9v0.2H86
	L84.5,95.9 M95,96l0.1,0.2L95,96 M119.5,95.9l0.2,0.2L119.5,95.9 M122.2,95.9l0.2,0.2L122.2,95.9 M126.4,95.9l0.2,0.2L126.4,95.9
	 M135.8,95.9l0.2,0.2L135.8,95.9 M149,95.9l0.2,0.2L149,95.9z"/>
<path class="st0" d="M178.7,95.9l0.2,0.2L178.7,95.9 M12.8,96.1l0.2,0.2L12.8,96.1z"/>
<path class="st1" d="M61.8,96.3l0.1,0.2L61.8,96.3 M65.4,96.1l0.2,0.2L65.4,96.1 M74.1,96.1l0.2,0.2L74.1,96.1 M87.7,96.1l0.2,0.2
	L87.7,96.1 M92.3,96.3l0.1,0.2L92.3,96.3 M101.9,96.1l0.2,0.2L101.9,96.1 M108.6,96.1l0.2,0.2L108.6,96.1 M113.3,96.1l0.2,0.2
	L113.3,96.1 M115.6,96.3l0.1,0.2L115.6,96.3 M137.3,96.1l0.2,0.2L137.3,96.1 M142.8,96.1l0.2,0.2L142.8,96.1 M146.1,96.3l0.1,0.2
	L146.1,96.3 M157.7,96.1l0.2,0.2L157.7,96.1 M166.3,96.1l0.2,0.2L166.3,96.1z"/>
<path class="st0" d="M179.2,96.1l0.2,0.2L179.2,96.1 M12.3,96.4l0.2,0.2L12.3,96.4z"/>
<path class="st1" d="M39.2,96.5l0.1,0.2L39.2,96.5 M54.5,96.4l0.2,0.2L54.5,96.4 M59,96.4l0.2,0.2L59,96.4 M68.1,96.4l0.2,0.2
	L68.1,96.4 M70.6,96.4l0.2,0.2L70.6,96.4 M73.8,96.4l0.2,0.2L73.8,96.4 M99.4,96.4l0.2,0.2L99.4,96.4 M106.1,96.4l0.2,0.2
	L106.1,96.4 M122,96.5l0.1,0.2L122,96.5 M126.2,96.5l0.1,0.2L126.2,96.5 M128.9,96.4l0.2,0.2L128.9,96.4 M133.4,96.4l0.2,0.2
	L133.4,96.4 M137.1,96.4l0.2,0.2L137.1,96.4 M148.7,96.4l0.2,0.2L148.7,96.4 M152.2,96.4l0.2,0.2L152.2,96.4 M154.7,96.4l0.2,0.2
	L154.7,96.4 M160.4,96.4l0.2,0.2L160.4,96.4 M162.9,96.4l0.2,0.2L162.9,96.4 M166.1,96.4l0.2,0.2L166.1,96.4z"/>
<path class="st0" d="M179.7,96.4l0.2,0.2L179.7,96.4 M12,96.7l0.2,0.1L12,96.7z"/>
<path class="st1" d="M46.3,96.6l0.2,0.2L46.3,96.6 M51.8,96.6l0.2,0.2L51.8,96.6 M70.4,96.6l0.2,0.2L70.4,96.6 M73.6,96.6l0.2,0.2
	L73.6,96.6 M87.5,96.6l0.2,0.2L87.5,96.6 M94.8,96.8l0.1,0.2L94.8,96.8 M113,96.6l0.2,0.2L113,96.6 M119.2,96.6l0.2,0.2L119.2,96.6
	 M136.8,96.6l0.2,0.2L136.8,96.6 M139.8,96.6l0.2,0.2L139.8,96.6 M142.5,96.6l0.2,0.2L142.5,96.6 M152.5,96.6l0.2,0.2L152.5,96.6
	 M154.4,96.6l0.2,0.2L154.4,96.6 M162.6,96.6l0.2,0.2L162.6,96.6 M165.8,96.6l0.2,0.2L165.8,96.6z"/>
<path class="st1" d="M41.8,96.9l0.2,0.2L41.8,96.9 M58.7,96.9l0.2,0.2L58.7,96.9 M61.5,97l0.1,0.2L61.5,97 M65.2,96.9l0.2,0.2
	L65.2,96.9 M69.9,96.9l0.2,0.2L69.9,96.9 M73.3,96.9l0.2,0.2L73.3,96.9 M101.7,97l0.1,0.2L101.7,97 M108.4,97l0.1,0.2L108.4,97
	 M115.3,96.9l0.2,0.2L115.3,96.9 M128.7,97l0.1,0.2L128.7,97 M145.8,97l0.1,0.2L145.8,97 M153,96.9l0.2,0.2L153,96.9 M153.9,96.9
	l0.2,0.2L153.9,96.9 M157.4,96.9l0.2,0.2L157.4,96.9 M162.1,96.9l0.2,0.2L162.1,96.9 M165.6,96.9l0.2,0.2L165.6,96.9z"/>
<path class="st0" d="M180.5,96.9l0.2,0.2L180.5,96.9 M11.3,97.1l0.2,0.2L11.3,97.1z"/>
<path class="st1" d="M49,97.1l0.2,0.2L49,97.1 M51.6,97.3l0.1,0.2L51.6,97.3 M54.2,97.1l0.2,0.2L54.2,97.1 M67.9,97.1l0.2,0.2
	L67.9,97.1 M69.4,97.1l0.2,0.2L69.4,97.1 M73.1,97.1l0.2,0.2L73.1,97.1 M85,97.1l0.2,0.2L85,97.1 M87.2,97.1l0.2,0.2L87.2,97.1
	 M91.9,97.1v0.7h0.2L91.9,97.1 M99.1,97.1l0.2,0.2L99.1,97.1 M105.8,97.1l0.2,0.2L105.8,97.1 M112.9,97.3l0.1,0.2L112.9,97.3
	 M119.1,97.3l0.1,0.2L119.1,97.3 M121.8,97.3l0.1,0.2L121.8,97.3 M125.9,97.1l0.2,0.2L125.9,97.1 M133.1,97.1l0.2,0.2L133.1,97.1
	 M139.6,97.1l0.2,0.2L139.6,97.1 M142.3,97.1l0.2,0.2L142.3,97.1 M148.6,97.3l0.1,0.2L148.6,97.3 M160.1,97.1l0.2,0.2L160.1,97.1
	 M161.6,97.1l0.2,0.2L161.6,97.1 M165.4,97.1l0.2,0.2L165.4,97.1 M38.9,97.5l0.1,0.2L38.9,97.5 M46.1,97.3l0.2,0.2L46.1,97.3
	 M58.5,97.3l0.2,0.2L58.5,97.3 M68.8,97.4l0.2,0.1L68.8,97.4 M72.6,97.3l0.2,0.2L72.6,97.3 M115,97.3l0.2,0.2L115,97.3 M136.3,97.3
	l0.2,0.2L136.3,97.3 M161.1,97.4l0.2,0.1L161.1,97.4 M164.9,97.3l0.2,0.2L164.9,97.3z"/>
<path class="st1" d="M26,97.6l0.2,0.2L26,97.6 M41.6,97.6l0.2,0.2L41.6,97.6 M64.9,97.6v0.7h0.2L64.9,97.6 M72.3,97.7l0.2,0.1
	L72.3,97.7 M84.7,97.6l0.2,0.2L84.7,97.6 M87,97.6l0.2,0.2L87,97.6 M94.5,97.8l0.1,0.2L94.5,97.8 M101.4,97.8l0.1,0.2L101.4,97.8
	 M108.1,97.8l0.1,0.2L108.1,97.8 M125.7,97.6l0.2,0.2L125.7,97.6 M128.4,97.6l0.2,0.2L128.4,97.6 M132.9,97.8l0.1,0.2L132.9,97.8
	 M136.1,97.6l0.2,0.2L136.1,97.6 M139.4,97.8l0.1,0.2L139.4,97.8 M142,97.6l0.2,0.2L142,97.6 M157.2,97.6v0.7h0.2L157.2,97.6
	 M164.5,97.7l0.2,0.1L164.5,97.7z"/>
<path class="st0" d="M182.2,113.9l0.2,0.2L182.2,113.9 M11.1,114.1l0.2,0.2L11.1,114.1z"/>
<path class="st1" d="M45.9,98l0.1,0.2L45.9,98 M48.8,97.8l0.2,0.2L48.8,97.8 M54.1,98l0.1,0.2L54.1,98 M58.2,97.8l0.2,0.2L58.2,97.8
	 M61.3,98l0.1,0.2L61.3,98 M71.9,97.8l0.2,0.2L71.9,97.8 M99,98l0.1,0.2L99,98 M105.7,98l0.1,0.2L105.7,98 M112.5,97.8l0.2,0.2
	L112.5,97.8 M114.8,97.8l0.2,0.2L114.8,97.8 M135.8,97.8l0.2,0.2L135.8,97.8 M145.5,97.8v1.2h0.2L145.5,97.8 M148.2,97.8v0.7h0.2
	L148.2,97.8 M164.1,97.8l0.2,0.2L164.1,97.8z"/>
<path class="st0" d="M182.5,114.1l0.2,0.2L182.5,114.1 M10.9,114.4l0.2,0.2L10.9,114.4z"/>
<path class="st1" d="M26,98.1l0.2,0.2L26,98.1 M51.3,98.1v0.7h0.2L51.3,98.1 M71.1,98.1l0.2,0.2L71.1,98.1 M84.5,98.1l0.2,0.2
	L84.5,98.1 M86.7,98.1l0.2,0.2L86.7,98.1 M118.7,98.1v1h0.2L118.7,98.1 M121.5,98.1v0.7h0.2L121.5,98.1 M125.4,98.1l0.2,0.2
	L125.4,98.1 M141.8,98.1l0.2,0.2L141.8,98.1 M163.4,98.1l0.2,0.2L163.4,98.1z"/>
<path class="st0" d="M182.7,114.4l0.2,0.2L182.7,114.4 M10.6,114.6l0.2,0.2L10.6,114.6z"/>
<path class="st1" d="M38.6,98.3l0.2,0.2L38.6,98.3 M41.3,98.3v0.7h0.2L41.3,98.3 M48.5,98.3l0.2,0.2L48.5,98.3 M58,98.3l0.2,0.2
	L58,98.3 M70.3,98.4l0.2,0.1L70.3,98.4 M91.7,98.3v0.7h0.2L91.7,98.3 M112.4,98.5l0.1,0.2L112.4,98.5 M125.2,98.3l0.2,0.2
	L125.2,98.3 M128.2,98.3l0.2,0.2L128.2,98.3 M132.6,98.3l0.2,0.2L132.6,98.3 M139.1,98.3l0.2,0.2L139.1,98.3 M162.5,98.4l0.2,0.1
	L162.5,98.4z"/>
<path class="st0" d="M183,114.6l0.2,0.2L183,114.6 M10.4,114.9l0.2,0.2L10.4,114.9z"/>
<path class="st1" d="M26,98.6l0.2,0.2L26,98.6 M28.9,98.6v1h0.2L28.9,98.6 M68.9,98.6v0.2h0.7L68.9,98.6 M86.5,98.6l0.2,0.2
	L86.5,98.6 M98.7,98.8l0.1,0.2L98.7,98.8 M101.2,98.8l0.1,0.2L101.2,98.8 M105.4,98.8l0.1,0.2L105.4,98.8 M107.9,98.8l0.1,0.2
	L107.9,98.8 M114.5,98.6l0.2,0.2L114.5,98.6 M135.3,98.6l0.2,0.2L135.3,98.6 M161.1,98.6v0.2h0.7L161.1,98.6z"/>
<path class="st0" d="M183.2,114.9l0.2,0.2L183.2,114.9 M10.1,115.1l0.2,0.2L10.1,115.1z"/>
<path class="st1" d="M38.6,98.8v1.2h0.2L38.6,98.8 M48.3,98.8l0.2,0.2L48.3,98.8 M61,99l0.1,0.2L61,99 M84,98.8l0.2,0.2L84,98.8
	 M94.2,98.8v0.7h0.2L94.2,98.8 M124.9,98.8l0.2,0.2L124.9,98.8 M132.4,98.8l0.2,0.2L132.4,98.8 M141.5,98.8l0.2,0.2L141.5,98.8z"/>
<path class="st0" d="M183.5,115.1l0.2,0.2L183.5,115.1z"/>
<path class="st1" d="M57.5,99.1l0.2,0.2L57.5,99.1 M67.4,99.1v0.7h0.2L67.4,99.1 M86.2,99.1l0.2,0.2L86.2,99.1 M112,99.1l0.2,0.2
	L112,99.1 M114.3,99.2l0.1,0.2L114.3,99.2 M127.9,99.1v1.7h0.2L127.9,99.1 M138.9,99.2l0.1,0.2L138.9,99.2 M159.6,99.1v0.7h0.2
	L159.6,99.1 M35.4,99.3l0.2,0.2L35.4,99.3 M45.1,99.3l0.2,0.2L45.1,99.3 M48,99.3l0.2,0.2L48,99.3 M53.8,99.5l0.1,0.2L53.8,99.5
	 M83.8,99.3l0.2,0.2L83.8,99.3 M118.7,99.3l0.2,0.2L118.7,99.3 M141.4,99.5l0.1,0.2L141.4,99.5 M145.5,99.3v1.2h0.2L145.5,99.3z"/>
<path class="st1" d="M26.3,99.7l0.1,0.2L26.3,99.7 M34.9,99.6l0.2,0.2L34.9,99.6 M35.6,99.6l0.2,0.2L35.6,99.6 M98.4,99.6v0.7h0.2
	L98.4,99.6 M100.9,99.6v0.7h0.2L100.9,99.6 M105.1,99.6v0.7h0.2L105.1,99.6 M107.6,99.6v0.7h0.2L107.6,99.6 M124.4,99.6l0.2,0.2
	L124.4,99.6 M153.4,99.6l0.2,0.2L153.4,99.6z"/>
<path class="st0" d="M184,115.9l0.2,0.2L184,115.9 M9.4,116.1l0.2,0.2L9.4,116.1z"/>
<path class="st1" d="M34.7,99.8l0.2,0.2L34.7,99.8 M44.8,99.8l0.2,0.2L44.8,99.8 M57,99.8l0.2,0.2L57,99.8 M73,99.9l0.2,0.1L73,99.9
	 M85.7,99.8l0.2,0.2L85.7,99.8 M111.9,100l0.1,0.2L111.9,100 M118.7,99.8v1h0.2L118.7,99.8 M165.3,99.9l0.2,0.1L165.3,99.9z"/>
<path class="st0" d="M184.2,116.1l0.2,0.2L184.2,116.1z"/>
<path class="st1" d="M29.2,100.1l0.2,0.2L29.2,100.1 M35.9,100.1v1h0.2L35.9,100.1 M44.6,100.1l0.2,0.2L44.6,100.1 M47.5,100.1
	l0.2,0.2L47.5,100.1 M53.7,100.1l0.2,0.2L53.7,100.1 M56.7,100.1l0.2,0.2L56.7,100.1 M58.5,100.1v1.5h0.2L58.5,100.1 M60.7,100.1
	v0.7h0.2L60.7,100.1 M64.9,100.1v0.7h0.2L64.9,100.1 M72.3,100.1l0.2,0.2L72.3,100.1 M73.3,100.1l0.2,0.2L73.3,100.1 M83.3,100.1
	l0.2,0.2L83.3,100.1 M91.4,100.1l0.2,0.2L91.4,100.1 M114,100.1l0.2,0.2L114,100.1 M125.7,100.1l-0.2,0.5h0.5L125.7,100.1
	 M131.9,100.1l0.2,0.2L131.9,100.1 M138.6,100.1v1.5h0.2L138.6,100.1 M148.3,100.2l0.1,0.2L148.3,100.2 M153.9,100.1v0.7h0.2
	L153.9,100.1 M157.2,100.1v0.7h0.2L157.2,100.1 M164.6,100.1l0.2,0.2L164.6,100.1 M165.6,100.1l0.2,0.2L165.6,100.1z"/>
<path class="st1" d="M33.9,100.3l0.2,0.2L33.9,100.3 M67.7,100.5l0.1,0.2L67.7,100.5 M72.1,100.3l0.2,0.2L72.1,100.3 M83,100.3
	l0.2,0.2L83,100.3 M85.5,100.3l0.2,0.2L85.5,100.3 M141,100.3v0.7h0.2L141,100.3 M160,100.5l0.1,0.2L160,100.5 M164.4,100.3l0.2,0.2
	L164.4,100.3z"/>
<path class="st0" d="M184.5,116.6l0.2,0.2L184.5,116.6 M9,117l0.1,0.2L9,117z"/>
<path class="st1" d="M26.5,100.6l0.2,0.2L26.5,100.6 M29.4,100.6l0.2,0.2L29.4,100.6 M33.7,100.6l0.2,0.2L33.7,100.6 M51.4,100.7
	l0.1,0.2L51.4,100.7 M56.2,100.6l0.2,0.2L56.2,100.6 M71.9,100.6l0.2,0.2L71.9,100.6 M91.4,100.6l0.2,0.2L91.4,100.6 M94.3,100.7
	l0.1,0.2L94.3,100.7 M114.3,100.6l0.2,0.2L114.3,100.6 M123.7,100.6l0.2,0.2L123.7,100.6 M125.2,100.6l0.2,0.2L125.2,100.6
	 M131.6,100.6l0.2,0.2L131.6,100.6 M152.2,100.6l0.2,0.2L152.2,100.6 M164.1,100.6l0.2,0.2L164.1,100.6z"/>
<path class="st0" d="M184.8,117l0.1,0.2L184.8,117z"/>
<path class="st1" d="M33.2,100.8l0.2,0.2L33.2,100.8 M38.9,100.8l0.2,0.2L38.9,100.8 M41.4,101l0.1,0.2L41.4,101 M44.1,100.8
	l0.2,0.2L44.1,100.8 M54.1,101l0.1,0.2L54.1,101 M62.8,100.9L63,101L62.8,100.9 M67.9,100.8l0.2,0.2L67.9,100.8 M71.4,100.8l0.2,0.2
	L71.4,100.8 M85.2,100.8l0.2,0.2L85.2,100.8 M96.1,100.9l0.2,0.1L96.1,100.9 M100.9,100.8l0.2,0.2L100.9,100.8 M102.4,100.8l0.2,0.2
	L102.4,100.8 M107.6,100.8l0.2,0.2L107.6,100.8 M109.1,100.8l0.2,0.2L109.1,100.8 M111.5,100.8l0.2,0.2L111.5,100.8 M116,100.8v1
	h0.2L116,100.8 M121.5,101l0.1,0.2L121.5,101 M128.2,100.8l0.2,0.2L128.2,100.8 M129.6,100.8l0.2,0.2L129.6,100.8 M130.1,100.8
	l0.2,0.2L130.1,100.8 M142.8,100.8v0.2l0.5,0.7h0.2v-1H142.8 M145.8,101l0.1,0.2L145.8,101 M152,100.8l0.2,0.2L152,100.8
	 M160.1,100.8l0.2,0.2L160.1,100.8 M163.6,100.8l0.2,0.2L163.6,100.8z"/>
<path class="st1" d="M26.7,101.1l0.2,0.2L26.7,101.1 M29.9,101.1l0.2,0.2L29.9,101.1 M32.7,101.1l0.2,0.2L32.7,101.1 M43.8,101.1
	l0.2,0.2L43.8,101.1 M46.8,101.1l0.2,0.2L46.8,101.1 M55.7,101.1l0.2,0.2L55.7,101.1 M57.7,101.1l0.2,0.2L57.7,101.1 M60.9,101.1
	l0.2,0.2L60.9,101.1 M62.1,101.1l0.2,0.1L62.1,101.1 M65.2,101.1l0.2,0.2L65.2,101.1 M68.1,101.1l0.2,0.2L68.1,101.1 M70.9,101.1
	l0.2,0.2L70.9,101.1 M82.3,101.1l0.2,0.2L82.3,101.1 M85,101.1l0.2,0.2L85,101.1 M94.4,101.1l0.2,0.2L94.4,101.1 M95.4,101.1
	l0.2,0.2L95.4,101.1 M96.4,101.1l0.2,0.2L96.4,101.1 M98.4,101.1v0.7h0.2L98.4,101.1 M101.9,101.1l0.2,0.2L101.9,101.1 M105.1,101.1
	v0.7h0.2L105.1,101.1 M108.6,101.1l0.2,0.2L108.6,101.1 M124.9,101.1l0.2,0.2L124.9,101.1 M128.4,101.1v0.2h1L128.4,101.1
	 M131.4,101.1l0.2,0.2L131.4,101.1 M134.1,101.1l0.2,0.2L134.1,101.1 M141.3,101.1l0.2,0.2L141.3,101.1 M142.3,101.1l0.2,0.2
	L142.3,101.1 M148.7,101.1l0.2,0.2L148.7,101.1 M151.5,101.1l0.2,0.2L151.5,101.1 M153.7,101.1l0.2,0.2L153.7,101.1 M157.4,101.1
	l0.2,0.2L157.4,101.1 M160.4,101.1l0.2,0.2L160.4,101.1 M163.1,101.1l0.2,0.2L163.1,101.1z"/>
<path class="st0" d="M185,117.5l0.1,0.2L185,117.5z"/>
<path class="st1" d="M30.4,101.4l0.2,0.1L30.4,101.4 M31.8,101.4l0.2,0.1L31.8,101.4 M35.6,101.3l0.2,0.2L35.6,101.3 M46.6,101.3
	l0.2,0.2L46.6,101.3 M54.2,101.3l0.2,0.2L54.2,101.3 M55.2,101.3l0.2,0.2L55.2,101.3 M57.5,101.3l0.2,0.2L57.5,101.3 M68.4,101.3
	l0.2,0.2L68.4,101.3 M70,101.4l0.2,0.1L70,101.4 M73.3,101.3l0.2,0.2L73.3,101.3 M82,101.3l0.2,0.2L82,101.3 M111.5,101.3l0.2,0.2
	L111.5,101.3 M119,101.3l0.2,0.2L119,101.3 M121.7,101.3l0.2,0.2L121.7,101.3 M122.7,101.3l0.2,0.2L122.7,101.3 M124.7,101.3
	l0.2,0.2L124.7,101.3 M149.2,101.3l0.2,0.2L149.2,101.3 M150.6,101.4l0.2,0.1L150.6,101.4 M160.6,101.3l0.2,0.2L160.6,101.3
	 M162.3,101.4l0.2,0.1L162.3,101.4 M165.6,101.3l0.2,0.2L165.6,101.3 M35.4,101.6l0.2,0.2L35.4,101.6 M41.6,101.6l0.2,0.2
	L41.6,101.6 M43.1,101.6l0.2,0.2L43.1,101.6 M51.5,101.6l0.2,0.2L51.5,101.6 M57.2,101.6l0.2,0.2L57.2,101.6 M65.4,101.6l0.2,0.2
	L65.4,101.6 M81.8,101.6l0.2,0.2L81.8,101.6 M96.4,101.6l0.2,0.2L96.4,101.6 M102.9,101.6l0.2,0.2L102.9,101.6 M109.6,101.6l0.2,0.2
	L109.6,101.6 M125.8,101.7l0.1,0.2L125.8,101.7 M130.1,101.6l0.2,0.2L130.1,101.6 M131.1,101.6l0.2,0.2L131.1,101.6 M133.9,101.6
	l0.2,0.2L133.9,101.6 M157.7,101.6l0.2,0.2L157.7,101.6 M39.4,101.8l0.2,0.2L39.4,101.8 M42.1,101.8v0.2h0.7L42.1,101.8 M57,101.8
	l0.2,0.2L57,101.8 M62.9,101.8l0.2,0.2L62.9,101.8 M65.7,101.8l0.2,0.2L65.7,101.8 M81.3,101.8l0.2,0.2L81.3,101.8 M84.5,101.8
	l0.2,0.2L84.5,101.8 M91.7,101.8l0.2,0.2L91.7,101.8 M119.2,101.8l0.2,0.2L119.2,101.8 M146.3,101.8l0.2,0.2L146.3,101.8
	 M157.9,101.8l0.2,0.2L157.9,101.8 M34.7,102.1l0.2,0.2L34.7,102.1 M45.6,102.1l0.2,0.2L45.6,102.1 M51.8,102.1l0.2,0.2L51.8,102.1
	 M56.7,102.1l0.2,0.2L56.7,102.1 M58.7,102.1l0.2,0.2L58.7,102.1 M62.7,102.1l0.2,0.2L62.7,102.1 M80.8,102.1l0.2,0.2L80.8,102.1
	 M84.3,102.1l0.2,0.2L84.3,102.1 M96.2,102.1l0.2,0.2L96.2,102.1 M98.6,102.1l0.2,0.2L98.6,102.1 M102.6,102.1l0.2,0.2L102.6,102.1
	 M105.3,102.1l0.2,0.2L105.3,102.1 M109.3,102.1l0.2,0.2L109.3,102.1 M111.8,102.1l0.2,0.2L111.8,102.1 M115.8,102.1l0.2,0.2
	L115.8,102.1 M129.9,102.1l0.2,0.2L129.9,102.1 M133.6,102.1l0.2,0.2L133.6,102.1 M138.8,102.1l0.2,0.2L138.8,102.1 M143,102.1
	l0.2,0.2L143,102.1 M146.5,102.1l0.2,0.2L146.5,102.1z"/>
<path class="st1" d="M39.9,102.3l0.2,0.2L39.9,102.3 M52,102.3l0.2,0.2L52,102.3 M56.5,102.3l0.2,0.2L56.5,102.3 M66.1,102.3
	l0.2,0.2L66.1,102.3 M72.3,102.3l0.2,0.2L72.3,102.3 M84,102.3l0.2,0.2L84,102.3 M91.9,102.3l0.2,0.2L91.9,102.3 M95.9,102.3
	l0.2,0.2L95.9,102.3 M102.4,102.3l0.2,0.2L102.4,102.3 M109.1,102.3l0.2,0.2L109.1,102.3 M115.5,102.3l0.2,0.2L115.5,102.3
	 M123.7,102.3l0.2,0.2L123.7,102.3 M125.9,102.3l0.2,0.2L125.9,102.3 M129.6,102.3l0.2,0.2L129.6,102.3 M131.1,102.3l0.2,0.2
	L131.1,102.3 M142.8,102.3l0.2,0.2L142.8,102.3 M146.8,102.3l0.2,0.2L146.8,102.3 M152.5,102.3l0.2,0.2L152.5,102.3 M158.4,102.3
	l0.2,0.2L158.4,102.3 M164.6,102.3l0.2,0.2L164.6,102.3z"/>
<path class="st0" d="M185.5,118.8l0.1,0.2L185.5,118.8z"/>
<path class="st1" d="M28.2,102.6l0.2,0.2L28.2,102.6 M40.1,102.6l0.2,0.2L40.1,102.6 M44.8,102.6l0.2,0.2L44.8,102.6 M52.3,102.6
	l0.2,0.2L52.3,102.6 M56,102.6l0.2,0.2L56,102.6 M62.2,102.6l0.2,0.2L62.2,102.6 M66.4,102.6l0.2,0.2L66.4,102.6 M71.9,102.6
	l0.2,0.2L71.9,102.6 M92.2,102.6l0.2,0.2L92.2,102.6 M95.7,102.6l0.2,0.2L95.7,102.6 M98.9,102.6l0.2,0.2L98.9,102.6 M102.1,102.6
	l0.2,0.2L102.1,102.6 M105.6,102.6l0.2,0.2L105.6,102.6 M108.8,102.6l0.2,0.2L108.8,102.6 M115.3,102.6l0.2,0.2L115.3,102.6
	 M123.4,102.6l0.2,0.2L123.4,102.6 M126.2,102.6l0.2,0.2L126.2,102.6 M129.4,102.6l0.2,0.2L129.4,102.6 M133.4,102.6l0.2,0.2
	L133.4,102.6 M142.5,102.6l0.2,0.2L142.5,102.6 M147,102.6l0.2,0.2L147,102.6 M152,102.6l0.2,0.2L152,102.6 M158.7,102.6l0.2,0.2
	L158.7,102.6 M164.1,102.6l0.2,0.2L164.1,102.6 M28.7,102.8l0.2,0.2L28.7,102.8 M33.2,102.8l0.2,0.2L33.2,102.8 M40.6,102.8l0.2,0.2
	L40.6,102.8 M44.3,102.8l0.2,0.2L44.3,102.8 M52.5,102.8l0.2,0.2L52.5,102.8 M55.5,102.8l0.2,0.2L55.5,102.8 M61.9,102.8l0.2,0.2
	L61.9,102.8 M66.9,102.8l0.2,0.2L66.9,102.8 M71.3,102.9l0.2,0.1L71.3,102.9 M83.3,102.8l0.2,0.2L83.3,102.8 M92.4,102.8l0.2,0.2
	L92.4,102.8 M95.2,102.8l0.2,0.2L95.2,102.8 M112.3,102.8l0.2,0.2L112.3,102.8 M115,102.8l0.2,0.2L115,102.8 M120.2,102.8l0.2,0.2
	L120.2,102.8 M122.9,102.8l0.2,0.2L122.9,102.8 M129.1,102.8l0.2,0.2L129.1,102.8 M139.6,102.8l0.2,0.2L139.6,102.8 M142,102.8
	l0.2,0.2L142,102.8 M147.5,102.8l0.2,0.2L147.5,102.8 M151.5,102.8l0.2,0.2L151.5,102.8 M159.2,102.8l0.2,0.2L159.2,102.8
	 M163.5,102.9l0.2,0.1L163.5,102.9z"/>
<path class="st1" d="M29.4,103.1v0.2h0.7L29.4,103.1 M31.9,103.1v0.2h0.7L31.9,103.1 M41.1,103.1v0.2h0.7L41.1,103.1 M43.5,103.1
	l0.2,0.1L43.5,103.1 M53.3,103.1l0.2,0.2L53.3,103.1 M54.9,103.1l0.2,0.1L54.9,103.1 M59.9,103.1l0.2,0.1L59.9,103.1 M61.4,103.1
	l0.2,0.1L61.4,103.1 M67.4,103.1v0.2h0.7L67.4,103.1 M69.9,103.1v0.2h0.7L69.9,103.1 M81.3,103.1l0.2,0.2L81.3,103.1 M82.7,103.1
	l0.2,0.1L82.7,103.1 M93.1,103.1l0.2,0.1L93.1,103.1 M94.6,103.1l0.2,0.1L94.6,103.1 M99.8,103.1l0.2,0.1L99.8,103.1 M101.1,103.1
	l0.2,0.2L101.1,103.1 M106.5,103.1l0.2,0.1L106.5,103.1 M107.8,103.1l0.2,0.2L107.8,103.1 M112.9,103.1l0.2,0.1L112.9,103.1
	 M114.4,103.1l0.2,0.1L114.4,103.1 M120.7,103.1l0.2,0.2L120.7,103.1 M122.4,103.1l0.2,0.1L122.4,103.1 M126.7,103.1l0.2,0.2
	L126.7,103.1 M128.6,103.1l0.2,0.2L128.6,103.1 M132,103.1l0.2,0.1L132,103.1 M132.9,103.1l0.2,0.2L132.9,103.1 M140.1,103.1
	l0.2,0.2L140.1,103.1 M141.5,103.1l0.2,0.2L141.5,103.1 M148.4,103.1l0.2,0.1L148.4,103.1 M150.6,103.1l0.2,0.1L150.6,103.1
	 M159.6,103.1v0.2h0.7L159.6,103.1 M162.1,103.1v0.2h0.7L162.1,103.1z"/>
<path class="st0" d="M185.8,119.5l0.1,0.2L185.8,119.5z"/>
<path class="st1" d="M127.7,103.3l0.2,0.2L127.7,103.3z"/>
<path class="st0" d="M6.9,104v1h0.2L6.9,104 M185.2,104v1h0.2L185.2,104 M6.9,107.3v0.7h0.2L6.9,107.3 M185.2,107.3v0.7h0.2
	L185.2,107.3 M7.2,108.9l0.1,0.2L7.2,108.9 M185,108.9l0.1,0.2L185,108.9 M7.5,109.7l0.1,0.2L7.5,109.7 M184.8,109.7l0.1,0.2
	L184.8,109.7 M7.7,110.4l0.1,0.2L7.7,110.4 M184.5,110.4l0.1,0.2L184.5,110.4 M7.9,110.9l0.1,0.2L7.9,110.9 M184,111.5l0.2,0.2
	L184,111.5 M8.4,111.7l0.2,0.2L8.4,111.7 M183.7,111.7l0.2,0.2L183.7,111.7 M8.6,112.2l0.2,0.2L8.6,112.2 M183.5,112.2l0.2,0.2
	L183.5,112.2 M9.1,113l0.2,0.2L9.1,113 M183,113l0.2,0.2L183,113 M9.4,113.2l0.2,0.2L9.4,113.2 M182.7,113.2l0.2,0.2L182.7,113.2
	 M9.6,113.5l0.2,0.2L9.6,113.5 M182.5,113.5l0.2,0.2L182.5,113.5 M9.8,113.7l0.2,0.2L9.8,113.7 M182.2,113.7l0.2,0.2L182.2,113.7
	 M10.1,114l0.2,0.2L10.1,114 M182,114l0.2,0.2L182,114 M10.3,114.2l0.2,0.2L10.3,114.2 M181.7,114.2l0.2,0.2L181.7,114.2
	 M181.5,114.5l0.2,0.2L181.5,114.5 M11.3,115l0.2,0.2L11.3,115 M180.7,115l0.2,0.2L180.7,115 M11.6,115.2l0.2,0.2L11.6,115.2
	 M180.5,115.2l0.2,0.2L180.5,115.2 M12.1,115.5l0.2,0.2L12.1,115.5 M179.7,115.7l0.2,0.2L179.7,115.7 M179.2,115.9l0.2,0.2
	L179.2,115.9 M13.3,116.2l0.2,0.2L13.3,116.2 M178.7,116.2l0.2,0.2L178.7,116.2 M14,116.5l0.2,0.1L14,116.5 M178.2,116.5l0.2,0.1
	L178.2,116.5 M14.7,116.8l0.2,0.1L14.7,116.8 M177.3,116.7l0.2,0.2L177.3,116.7 M15.6,116.9v0.2h0.7L15.6,116.9 M176.4,117l0.2,0.1
	L176.4,117 M16.8,117.2v0.2h158.5l-4.5-0.2h-9.2h-32.5H16.8z"/>
</svg>
