<svg xmlns="http://www.w3.org/2000/svg" fill="none" viewBox="8.29 0 224.71 47.24">
<path d="M45.7417 0H27.1255C26.0977 0 25.2645 0.831201 25.2645 1.85654V2.60023C25.2645 3.62557 26.0977 4.45677 27.1255 4.45677H45.7417C46.7695 4.45677 47.6028 3.62557 47.6028 2.60023V1.85654C47.6028 0.831201 46.7695 0 45.7417 0Z" fill="url(#paint0_linear)"/>
<path d="M44.8489 42.7849H26.2328C25.2049 42.7849 24.3717 43.6161 24.3717 44.6414V45.3851C24.3717 46.4105 25.2049 47.2417 26.2328 47.2417H44.8489C45.8768 47.2417 46.71 46.4105 46.71 45.3851V44.6414C46.71 43.6161 45.8768 42.7849 44.8489 42.7849Z" fill="url(#paint1_linear)"/>
<path d="M31.4455 14.2617H12.8294C11.8016 14.2617 10.9683 15.0929 10.9683 16.1183V16.862C10.9683 17.8873 11.8016 18.7185 12.8294 18.7185H31.4455C32.4734 18.7185 33.3066 17.8873 33.3066 16.862V16.1183C33.3066 15.0929 32.4734 14.2617 31.4455 14.2617Z" fill="url(#paint2_linear)"/>
<path d="M55.5722 28.5242H36.9561C35.9283 28.5242 35.095 29.3554 35.095 30.3807V31.1244C35.095 32.1497 35.9283 32.9809 36.9561 32.9809H55.5722C56.6001 32.9809 57.4333 32.1497 57.4333 31.1244V30.3807C57.4333 29.3554 56.6001 28.5242 55.5722 28.5242Z" fill="url(#paint3_linear)"/>
<path d="M54.6769 35.6538H18.1902C17.1623 35.6538 16.3291 36.485 16.3291 37.5103V38.254C16.3291 39.2794 17.1623 40.1106 18.1902 40.1106H54.6769C55.7048 40.1106 56.538 39.2794 56.538 38.254V37.5103C56.538 36.485 55.7048 35.6538 54.6769 35.6538Z" fill="url(#paint4_linear)"/>
<path d="M54.3478 7H17.8611C16.8332 7 16 7.8312 16 8.85654V9.60023C16 10.6256 16.8332 11.4568 17.8611 11.4568H54.3478C55.3757 11.4568 56.2089 10.6256 56.2089 9.60023V8.85654C56.2089 7.8312 55.3757 7 54.3478 7Z" fill="url(#paint5_linear)"/>
<path d="M58.2518 21.3918H10.149C9.1212 21.3918 8.28796 22.223 8.28796 23.2484V23.9921C8.28796 25.0174 9.1212 25.8486 10.149 25.8486H58.2518C59.2796 25.8486 60.1128 25.0174 60.1128 23.9921V23.2484C60.1128 22.223 59.2796 21.3918 58.2518 21.3918Z" fill="url(#paint6_linear)"/>
<path d="M26.6056 32.9812C27.8393 32.9812 28.8394 31.9835 28.8394 30.7528C28.8394 29.5221 27.8393 28.5244 26.6056 28.5244C25.3719 28.5244 24.3717 29.5221 24.3717 30.7528C24.3717 31.9835 25.3719 32.9812 26.6056 32.9812Z" fill="#72BF44"/>
<path d="M79.4113 17.4131V22.0709H85.4987V23.7171H79.4113V28.5556H86.1114V30.3825H77V15.586H86.1114V17.4131H79.4113ZM91.6059 26.9293C91.6059 27.3844 91.6652 27.7459 91.7837 28.0136C91.9023 28.2678 92.067 28.4618 92.2778 28.5956C92.4887 28.7162 92.7258 28.7965 92.9894 28.8365C93.2661 28.8768 93.5625 28.8967 93.8788 28.8967V30.3825C93.7075 30.4093 93.5296 30.4294 93.3451 30.4427C93.2002 30.4562 93.0289 30.4628 92.8312 30.4628C92.6336 30.4763 92.436 30.4829 92.2383 30.4829C92.0407 30.4829 91.843 30.4763 91.6454 30.4628C91.4477 30.4493 91.2699 30.4294 91.1118 30.4026C90.6638 30.3088 90.3146 30.1082 90.0642 29.8002C89.8139 29.4925 89.6228 29.1511 89.4911 28.7764C89.3593 28.3883 89.2737 28.0136 89.2341 27.6521C89.2078 27.2906 89.1946 27.0096 89.1946 26.8088V26.568V14.7829H91.6059V26.9293ZM98.8 30.3825H96.3888V19.0593H98.8V30.3825ZM99.0175 15.4455C99.0175 15.847 98.8792 16.1884 98.6024 16.4694C98.3256 16.7371 97.9898 16.8709 97.5945 16.8709C97.1992 16.8709 96.8632 16.7304 96.5864 16.4494C96.3228 16.1683 96.1912 15.8336 96.1912 15.4455C96.1912 15.044 96.3296 14.7026 96.6062 14.4217C96.883 14.1405 97.2123 14 97.5945 14C97.9898 14 98.3256 14.1405 98.6024 14.4217C98.8792 14.7026 99.0175 15.044 99.0175 15.4455ZM105.342 26.9494C105.342 27.4045 105.401 27.7591 105.52 28.0136C105.639 28.2678 105.803 28.4618 106.014 28.5956C106.238 28.7295 106.482 28.8166 106.745 28.8567C107.022 28.8834 107.312 28.8967 107.615 28.8967V30.3825C107.444 30.4093 107.272 30.4294 107.101 30.4427C106.956 30.4562 106.778 30.4628 106.567 30.4628C106.37 30.4763 106.172 30.4829 105.975 30.4829C105.777 30.4829 105.573 30.4763 105.362 30.4628C105.164 30.4493 104.993 30.4294 104.848 30.4026C104.4 30.3223 104.051 30.1281 103.8 29.8203C103.55 29.4991 103.359 29.1511 103.227 28.7764C103.109 28.3883 103.03 28.0136 102.99 27.6521C102.964 27.2906 102.951 27.0096 102.951 26.8088V20.7055H101.488V19.0593H102.951V15.847H105.342V19.0593H107.121V20.7055H105.342V26.9494ZM115.086 18.9387C115.982 18.9387 116.772 19.1263 117.458 19.5011C118.143 19.8624 118.703 20.3508 119.138 20.9665C119.586 21.5689 119.902 22.2716 120.086 23.0746C120.284 23.8642 120.323 24.6874 120.205 25.544H112.457C112.457 25.9723 112.536 26.3672 112.694 26.7287C112.853 27.0899 113.063 27.4045 113.327 27.6722C113.604 27.9264 113.926 28.1273 114.295 28.2744C114.677 28.4217 115.086 28.4954 115.521 28.4954C115.666 28.4954 115.843 28.4819 116.054 28.4551C116.278 28.4149 116.509 28.3547 116.746 28.2744C116.996 28.1808 117.24 28.0671 117.477 27.933C117.728 27.7994 117.945 27.6388 118.13 27.4512L118.999 28.7965C118.564 29.3451 118.057 29.7602 117.477 30.0411C116.898 30.3223 116.16 30.4628 115.264 30.4628C114.539 30.4628 113.861 30.3157 113.228 30.021C112.596 29.7133 112.055 29.2985 111.607 28.7764C111.159 28.2543 110.804 27.6454 110.54 26.9494C110.277 26.2535 110.145 25.5039 110.145 24.7009C110.145 23.9111 110.277 23.1682 110.54 22.4722C110.804 21.7629 111.153 21.1473 111.588 20.6254C112.036 20.1033 112.563 19.6951 113.169 19.4007C113.775 19.0927 114.414 18.9387 115.086 18.9387ZM117.991 23.7772C117.991 23.416 117.925 23.0611 117.794 22.7133C117.662 22.3651 117.477 22.0508 117.24 21.7696C117.016 21.4886 116.739 21.2678 116.41 21.1072C116.081 20.9331 115.725 20.8395 115.343 20.826C114.934 20.826 114.559 20.9063 114.216 21.067C113.874 21.2276 113.577 21.4417 113.327 21.7094C113.076 21.9771 112.879 22.2983 112.734 22.6731C112.602 23.0346 112.536 23.4025 112.536 23.7772H117.991ZM140.918 22.5726C140.918 23.7907 140.786 24.8347 140.523 25.7046C140.272 26.5612 139.949 27.284 139.554 27.8729C139.159 28.4485 138.711 28.9036 138.21 29.2381C137.723 29.5728 137.248 29.827 136.787 30.0011C136.326 30.1617 135.904 30.2688 135.522 30.3223C135.14 30.3624 134.857 30.3825 134.672 30.3825H129.158V15.586H133.546C134.771 15.586 135.845 15.7869 136.767 16.1884C137.703 16.5764 138.474 17.0985 139.08 17.7543C139.699 18.4102 140.16 19.1597 140.463 20.0028C140.766 20.8327 140.918 21.6893 140.918 22.5726ZM133.882 28.6158C135.489 28.6158 136.649 28.0937 137.36 27.0499C138.072 26.0057 138.428 24.4934 138.428 22.5125C138.428 21.8968 138.355 21.2877 138.21 20.6856C138.065 20.0831 137.782 19.5411 137.36 19.0593C136.952 18.564 136.392 18.1693 135.68 17.8748C134.969 17.5669 134.046 17.4131 132.913 17.4131H131.53V28.6158H133.882ZM148.844 18.9387C149.739 18.9387 150.53 19.1263 151.215 19.5011C151.9 19.8624 152.46 20.3508 152.895 20.9665C153.343 21.5689 153.659 22.2716 153.844 23.0746C154.041 23.8642 154.081 24.6874 153.962 25.544H146.215C146.215 25.9723 146.294 26.3672 146.452 26.7287C146.61 27.0899 146.821 27.4045 147.084 27.6722C147.361 27.9264 147.684 28.1273 148.053 28.2744C148.435 28.4217 148.844 28.4954 149.278 28.4954C149.423 28.4954 149.601 28.4819 149.812 28.4551C150.036 28.4149 150.267 28.3547 150.504 28.2744C150.754 28.1808 150.998 28.0671 151.235 27.933C151.485 27.7994 151.703 27.6388 151.887 27.4512L152.757 28.7965C152.322 29.3451 151.815 29.7602 151.235 30.0411C150.655 30.3223 149.917 30.4628 149.021 30.4628C148.297 30.4628 147.618 30.3157 146.986 30.021C146.353 29.7133 145.813 29.2985 145.365 28.7764C144.917 28.2543 144.561 27.6454 144.298 26.9494C144.034 26.2535 143.902 25.5039 143.902 24.7009C143.902 23.9111 144.034 23.1682 144.298 22.4722C144.561 21.7629 144.91 21.1473 145.345 20.6254C145.793 20.1033 146.32 19.6951 146.926 19.4007C147.532 19.0927 148.171 18.9387 148.844 18.9387ZM151.749 23.7772C151.749 23.416 151.683 23.0611 151.551 22.7133C151.419 22.3651 151.235 22.0508 150.998 21.7696C150.774 21.4886 150.497 21.2678 150.168 21.1072C149.838 20.9331 149.483 20.8395 149.1 20.826C148.692 20.826 148.316 20.9063 147.974 21.067C147.631 21.2276 147.335 21.4417 147.084 21.7094C146.834 21.9771 146.636 22.2983 146.491 22.6731C146.36 23.0346 146.294 23.4025 146.294 23.7772H151.749ZM160.682 30.4628L156.769 19.0593H159.477L162.244 28.4954L165.011 19.0593H167.699L163.785 30.4628H160.682ZM184.34 26.3269C184.34 26.8623 184.228 27.3844 184.004 27.893C183.793 28.3883 183.49 28.8299 183.095 29.2179C182.7 29.5927 182.212 29.894 181.633 30.1214C181.053 30.3491 180.394 30.4628 179.656 30.4628C179.34 30.4628 179.01 30.4427 178.668 30.4026C178.338 30.3759 178.002 30.3223 177.66 30.242C177.317 30.1617 176.988 30.0546 176.672 29.9208C176.369 29.7734 176.105 29.5996 175.881 29.3987L176.296 27.6722C176.48 27.7793 176.711 27.8864 176.988 27.9934C177.278 28.087 177.574 28.1808 177.877 28.2744C178.18 28.3547 178.483 28.4217 178.786 28.4753C179.089 28.5288 179.373 28.5556 179.636 28.5556C180.44 28.5556 181.053 28.3682 181.474 27.9934C181.909 27.6052 182.126 27.0364 182.126 26.2869C182.126 25.8318 181.975 25.4438 181.672 25.1225C181.369 24.8013 180.987 24.5135 180.526 24.2591C180.078 23.9914 179.59 23.7306 179.063 23.4761C178.536 23.2085 178.042 22.9005 177.581 22.5527C177.119 22.1912 176.737 21.7696 176.434 21.2877C176.131 20.8059 175.98 20.2037 175.98 19.481C175.98 18.825 176.098 18.2427 176.336 17.7343C176.573 17.2255 176.889 16.7972 177.284 16.4494C177.693 16.088 178.161 15.8136 178.688 15.6263C179.228 15.4389 179.794 15.3451 180.387 15.3451C180.994 15.3451 181.606 15.4053 182.225 15.5258C182.845 15.6329 183.345 15.8136 183.727 16.0678C183.648 16.2419 183.556 16.436 183.451 16.6501C183.345 16.8508 183.247 17.045 183.154 17.2324C183.062 17.4063 182.983 17.5536 182.917 17.674C182.851 17.7945 182.812 17.8613 182.799 17.8748C182.719 17.8346 182.627 17.781 182.522 17.7142C182.43 17.6472 182.291 17.5804 182.107 17.5133C181.922 17.4465 181.679 17.3996 181.376 17.3729C181.072 17.3461 180.684 17.3527 180.209 17.393C179.946 17.4198 179.696 17.5001 179.458 17.6339C179.221 17.7543 179.01 17.9082 178.826 18.0956C178.641 18.283 178.497 18.4972 178.391 18.7381C178.286 18.9657 178.233 19.1865 178.233 19.4007C178.233 19.936 178.384 20.371 178.688 20.7055C178.991 21.0267 179.366 21.3145 179.814 21.5689C180.262 21.8098 180.75 22.0508 181.277 22.2917C181.804 22.5191 182.291 22.8003 182.739 23.1348C183.2 23.4695 183.583 23.8912 183.886 24.3996C184.189 24.8949 184.34 25.5373 184.34 26.3269ZM195.981 31.7076C195.981 31.8683 195.981 32.0355 195.981 32.2094C195.981 32.3835 196.001 32.5574 196.041 32.7315C196.08 32.9054 196.153 33.0726 196.258 33.2333C196.364 33.3939 196.515 33.5412 196.713 33.6751C196.686 33.7151 196.64 33.8023 196.574 33.9361C196.508 34.0832 196.429 34.2372 196.337 34.3978C196.245 34.5717 196.146 34.7726 196.041 35C195.277 34.8929 194.67 34.5451 194.222 33.9562C193.788 33.3806 193.57 32.6846 193.57 31.8683V29.0374C193.531 29.2113 193.412 29.3854 193.214 29.5593C193.03 29.7334 192.793 29.894 192.503 30.0411C192.213 30.175 191.884 30.2821 191.515 30.3624C191.146 30.4427 190.764 30.4829 190.368 30.4829C189.63 30.4829 188.985 30.3223 188.431 30.0011C187.878 29.6664 187.417 29.2248 187.048 28.6759C186.692 28.1273 186.422 27.4981 186.237 26.7888C186.066 26.0794 185.981 25.3367 185.981 24.5602C185.981 23.5164 186.119 22.6397 186.396 21.9302C186.686 21.2209 187.055 20.6453 187.502 20.2037C187.951 19.7486 188.445 19.4274 188.985 19.24C189.538 19.0527 190.078 18.9589 190.605 18.9589C191.251 18.9589 191.837 19.0728 192.364 19.3002C192.905 19.5276 193.307 19.829 193.57 20.2037L193.827 19.0593H195.981V31.7076ZM191.179 28.5755C191.574 28.5755 191.923 28.4753 192.226 28.2744C192.542 28.0602 192.812 27.7793 193.036 27.4313C193.26 27.0833 193.432 26.6751 193.55 26.2066C193.669 25.738 193.728 25.2362 193.728 24.7009C193.728 24.1655 193.662 23.6635 193.531 23.1952C193.412 22.7266 193.234 22.3184 192.997 21.9705C192.773 21.6225 192.496 21.3479 192.167 21.1473C191.851 20.9331 191.495 20.826 191.1 20.826C190.704 20.826 190.342 20.9331 190.013 21.1473C189.696 21.3479 189.426 21.6225 189.202 21.9705C188.991 22.3184 188.82 22.7266 188.688 23.1952C188.57 23.6635 188.51 24.1589 188.51 24.6807C188.51 25.2296 188.576 25.7449 188.708 26.2267C188.84 26.695 189.018 27.1034 189.242 27.4512C189.479 27.7994 189.756 28.0737 190.072 28.2744C190.401 28.4753 190.77 28.5755 191.179 28.5755ZM199.262 19.4608V19.0593H201.673V25.2228C201.673 25.6913 201.693 26.1329 201.733 26.5479C201.772 26.9494 201.858 27.3041 201.99 27.6118C202.121 27.9198 202.319 28.1673 202.583 28.3547C202.846 28.5421 203.195 28.6359 203.63 28.6359C203.762 28.6359 203.946 28.6224 204.184 28.5956C204.421 28.5556 204.658 28.4954 204.895 28.4149C205.145 28.3348 205.376 28.2344 205.587 28.1138C205.811 27.9934 205.976 27.8529 206.081 27.6923V27.5516V27.5317V23.0346V23.0144V19.0593H208.492V30.3825H206.338L206.081 29.2179C205.923 29.3653 205.725 29.5126 205.488 29.6597C205.251 29.8069 204.987 29.9476 204.697 30.0814C204.421 30.2017 204.131 30.3022 203.828 30.3825C203.538 30.4493 203.248 30.4829 202.958 30.4829C202.642 30.4829 202.359 30.4493 202.108 30.3825C201.858 30.329 201.621 30.242 201.397 30.1214C201.186 29.9876 200.982 29.8405 200.784 29.6799C200.586 29.5192 200.389 29.3385 200.191 29.1378C199.967 28.9102 199.789 28.6492 199.658 28.3547C199.526 28.047 199.427 27.7324 199.361 27.4112C199.308 27.0764 199.275 26.7419 199.262 26.4074C199.262 26.0727 199.262 25.7449 199.262 25.4236V19.4407V19.4608ZM219.936 26.8691V27.0298C219.936 27.1368 219.942 27.2974 219.956 27.5116C219.969 27.7123 219.995 27.9198 220.035 28.1339C220.074 28.3481 220.133 28.5421 220.213 28.7162C220.305 28.8901 220.423 29.0038 220.568 29.0573L219.936 30.4026C219.765 30.4026 219.58 30.3624 219.382 30.2821C219.198 30.2017 219.013 30.088 218.829 29.9409C218.658 29.7936 218.506 29.633 218.374 29.4591C218.256 29.2715 218.164 29.0708 218.098 28.8567C218.005 29.0843 217.841 29.2985 217.604 29.4991C217.38 29.6865 217.123 29.8604 216.833 30.021C216.543 30.1683 216.227 30.2821 215.884 30.3624C215.555 30.4427 215.245 30.4829 214.955 30.4829C214.507 30.4829 214.072 30.4228 213.651 30.3022C213.242 30.1816 212.88 29.9876 212.564 29.7199C212.248 29.4522 211.997 29.0976 211.813 28.656C211.641 28.2142 211.556 27.6722 211.556 27.0298C211.556 26.4141 211.681 25.8853 211.931 25.4438C212.195 24.9885 212.524 24.6206 212.919 24.3394C213.328 24.0449 213.789 23.8308 214.303 23.6969C214.817 23.5498 215.337 23.4761 215.864 23.4761H217.544C217.544 22.8204 217.511 22.2983 217.446 21.9103C217.38 21.522 217.268 21.2408 217.109 21.067C216.951 20.8796 216.754 20.7659 216.517 20.7256C216.293 20.6721 216.022 20.6453 215.706 20.6453C215.416 20.6453 215.14 20.6856 214.876 20.7659C214.626 20.8327 214.389 20.9196 214.165 21.0267C213.954 21.1205 213.763 21.2276 213.591 21.3479C213.433 21.4685 213.315 21.5621 213.236 21.6291L212.346 20.2438C212.478 20.0966 212.676 19.9493 212.939 19.8022C213.203 19.6416 213.506 19.5011 213.848 19.3805C214.191 19.26 214.56 19.1664 214.955 19.0993C215.364 19.0193 215.785 18.979 216.22 18.979C216.615 18.979 216.998 19.0193 217.366 19.0993C217.748 19.1799 218.091 19.3135 218.394 19.5011C218.71 19.6883 218.98 19.9427 219.205 20.2639C219.442 20.5718 219.606 20.9599 219.699 21.4284C219.791 21.8968 219.85 22.372 219.876 22.8538C219.916 23.3222 219.936 23.7907 219.936 24.2591V26.8691ZM217.564 24.9015H216.299C216.036 24.9015 215.759 24.9283 215.469 24.9818C215.179 25.0354 214.909 25.1358 214.659 25.2831C214.408 25.4303 214.198 25.6444 214.026 25.9256C213.868 26.1933 213.789 26.5411 213.789 26.9694C213.789 27.6388 213.934 28.1206 214.224 28.4149C214.527 28.7096 214.962 28.8567 215.528 28.8567C215.924 28.8567 216.299 28.7496 216.655 28.5354C217.024 28.3213 217.327 28.0335 217.564 27.6722V24.9015ZM224.462 29.2381C223.961 28.6627 223.592 27.9532 223.355 27.1101C223.118 26.2667 222.999 25.4168 222.999 24.5602C222.999 23.5164 223.138 22.6397 223.414 21.9302C223.704 21.2209 224.073 20.6453 224.521 20.2037C224.969 19.7619 225.463 19.4476 226.004 19.26C226.557 19.0593 227.097 18.9589 227.624 18.9589C228.27 18.9589 228.856 19.0728 229.383 19.3002C229.923 19.5276 230.325 19.829 230.589 20.2037V14.7829H233V30.3825H230.727C230.701 30.1551 230.674 29.9274 230.648 29.6998C230.635 29.4591 230.615 29.2381 230.589 29.0374C230.549 29.2113 230.431 29.3854 230.233 29.5593C230.049 29.7334 229.805 29.894 229.502 30.0411C229.212 30.175 228.882 30.2821 228.514 30.3624C228.145 30.4427 227.762 30.4829 227.367 30.4829C226.84 30.4829 226.32 30.3891 225.806 30.2017C225.305 30.0144 224.857 29.6931 224.462 29.2381ZM225.529 24.7409C225.529 25.2763 225.595 25.7783 225.727 26.2468C225.858 26.7017 226.036 27.1034 226.26 27.4512C226.484 27.7994 226.754 28.0737 227.071 28.2744C227.4 28.4753 227.756 28.5755 228.138 28.5755C228.546 28.5755 228.909 28.4753 229.225 28.2744C229.554 28.0602 229.831 27.7793 230.055 27.4313C230.279 27.0833 230.45 26.6751 230.569 26.2066C230.688 25.738 230.747 25.2362 230.747 24.7009C230.747 24.1655 230.681 23.6635 230.549 23.1952C230.431 22.7266 230.253 22.3184 230.016 21.9705C229.792 21.6225 229.515 21.3479 229.185 21.1473C228.869 20.9331 228.507 20.826 228.098 20.826C227.69 20.826 227.328 20.9331 227.011 21.1473C226.695 21.3479 226.425 21.6291 226.201 21.9904C225.99 22.3519 225.826 22.7669 225.707 23.2352C225.588 23.7036 225.529 24.2055 225.529 24.7409Z" fill="url(#paint7_linear)"/>
<defs>
<linearGradient id="paint0_linear" x1="28.8386" y1="2.67407" x2="44.4754" y2="2.67407" gradientUnits="userSpaceOnUse">
<stop stop-color="#62874C"/>
<stop offset="1" stop-color="#7EF338"/>
</linearGradient>
<linearGradient id="paint1_linear" x1="23.4782" y1="44.5676" x2="43.5826" y2="45.0155" gradientUnits="userSpaceOnUse">
<stop stop-color="#22F466"/>
<stop offset="1" stop-color="#E1F469"/>
</linearGradient>
<linearGradient id="paint2_linear" x1="14.5424" y1="16.0444" x2="28.8389" y2="16.0444" gradientUnits="userSpaceOnUse">
<stop stop-color="#9CDF74"/>
<stop offset="1" stop-color="#509427"/>
</linearGradient>
<linearGradient id="paint3_linear" x1="37.7756" y1="30.7526" x2="56.5398" y2="31.2004" gradientUnits="userSpaceOnUse">
<stop stop-color="#7EF338"/>
<stop offset="1" stop-color="#4AA017"/>
</linearGradient>
<linearGradient id="paint4_linear" x1="21.0046" y1="38.3279" x2="54.6679" y2="38.3279" gradientUnits="userSpaceOnUse">
<stop stop-color="#04716D"/>
<stop offset="0.461278" stop-color="#419C56"/>
<stop offset="1" stop-color="#72BF44"/>
</linearGradient>
<linearGradient id="paint5_linear" x1="20.6755" y1="9.67407" x2="54.3388" y2="9.67407" gradientUnits="userSpaceOnUse">
<stop stop-color="#04716D"/>
<stop offset="0.461278" stop-color="#419C56"/>
<stop offset="1" stop-color="#72BF44"/>
</linearGradient>
<linearGradient id="paint6_linear" x1="14.5427" y1="23.1746" x2="65.9208" y2="23.1746" gradientUnits="userSpaceOnUse">
<stop stop-color="#7EF338"/>
<stop offset="1" stop-color="#F2F496"/>
</linearGradient>
<linearGradient id="paint7_linear" x1="47.5963" y1="-9.94007" x2="286.202" y2="31.0229" gradientUnits="userSpaceOnUse">
<stop offset="0.125517" stop-color="#238762"/>
<stop offset="1" stop-color="#7EF338"/>
</linearGradient>
</defs>
</svg>