<svg width="102" height="43" viewBox="0 0 102 43" fill="none" xmlns="http://www.w3.org/2000/svg">
    <path d="M14.2736 6.82048V0H19.2851V18.4337H14.2736V11.3183H5.01146V18.4337H0V0H5.01146V6.82048H14.2736Z" fill="black"/>
    <path d="M37.5316 0H43.0744L34.6213 10.9619V18.4337H29.6099V11.0234L21.1206 0H26.6634L32.0975 7.05398L37.5316 0Z" fill="black"/>
    <path d="M55.0983 0C56.6038 0 57.908 0.262169 59.0109 0.786506C60.1138 1.31084 60.9591 2.05229 61.5468 3.01084C62.1345 3.9694 62.4283 5.08362 62.4283 6.35349C62.4283 7.62337 62.1345 8.73759 61.5468 9.69615C60.9591 10.6547 60.1138 11.3961 59.0109 11.9205C57.908 12.4448 56.6038 12.707 55.0983 12.707H49.942V18.4337H44.9305V0H55.0983ZM54.8085 8.62699C55.6136 8.62699 56.2415 8.42627 56.6923 8.02482C57.1432 7.62337 57.3686 7.06627 57.3686 6.35349C57.3686 5.64072 57.1432 5.08361 56.6923 4.68217C56.2415 4.28072 55.6136 4.08 54.8085 4.08H49.942V8.62699H54.8085Z" fill="black"/>
    <path d="M69.8676 11.0725L69.3604 14.3046H80.8324V18.4337H63.9867L65.3633 9.21687L63.9867 0H80.7117V4.12916H69.3604L69.8676 7.36121H80.0113V11.0725H69.8676Z" fill="black"/>
    <path d="M96.1915 18.4337L91.3371 11.7976H88.7166V18.4337H83.7052V0H94.4647C95.8333 0 97.0368 0.245783 98.0754 0.73735C99.1219 1.22892 99.931 1.9253 100.503 2.82651C101.082 3.71952 101.372 4.75181 101.372 5.92337C101.372 6.84916 101.187 7.69301 100.817 8.45494C100.446 9.20868 99.9149 9.84771 99.2226 10.372C98.5383 10.8964 97.7292 11.2773 96.7953 11.5149L102 18.4337H96.1915ZM88.7166 3.78506V8.06169H93.7764C94.5653 8.06169 95.1852 7.87325 95.636 7.49639C96.0869 7.11952 96.3123 6.59518 96.3123 5.92337C96.3123 5.25157 96.0869 4.72723 95.636 4.35036C95.1933 3.97349 94.5734 3.78506 93.7764 3.78506H88.7166Z" fill="black"/>
    <path d="M5.18603 36.1446C5.30072 36.9229 5.76771 37.5373 6.58699 37.9879C7.40627 38.4304 8.48771 38.6516 9.83133 38.6516C11.093 38.6516 12.0761 38.4877 12.7807 38.16C13.4935 37.8323 13.8499 37.3653 13.8499 36.759C13.8499 36.4313 13.7598 36.161 13.5795 35.9479C13.3993 35.7267 13.092 35.5465 12.6578 35.4072C12.2318 35.2679 11.6378 35.1614 10.8759 35.0877L7.45952 34.7682C4.94434 34.5388 3.10506 33.9735 1.94169 33.0723C0.786508 32.1629 0.208913 30.9012 0.208913 29.2872C0.208913 28.0337 0.57759 26.9646 1.31494 26.0798C2.05229 25.1867 3.09277 24.5108 4.43639 24.052C5.78819 23.5851 7.37349 23.3516 9.19228 23.3516C10.9455 23.3516 12.5145 23.6055 13.899 24.1135C15.2836 24.6214 16.3773 25.3342 17.1802 26.2518C17.9913 27.1694 18.4378 28.2304 18.5198 29.4347H13.3337C13.2436 28.7711 12.8258 28.2508 12.0802 27.874C11.3429 27.4889 10.3475 27.2964 9.09398 27.2964C7.9306 27.2964 7.01711 27.452 6.35349 27.7634C5.69807 28.0747 5.37036 28.5171 5.37036 29.0906C5.37036 29.5412 5.57517 29.8935 5.98481 30.1475C6.39445 30.3932 7.11132 30.5694 8.13542 30.6759L11.8099 31.0323C13.5549 31.1961 14.9518 31.4788 16.0005 31.8802C17.0492 32.2817 17.8111 32.8306 18.2863 33.527C18.7614 34.2234 18.999 35.1041 18.999 36.1692C18.999 37.4472 18.614 38.5737 17.8439 39.5487C17.0737 40.5154 15.9882 41.2651 14.5872 41.7976C13.1863 42.3301 11.5682 42.5964 9.73301 42.5964C7.84048 42.5964 6.16506 42.3301 4.70675 41.7976C3.24844 41.2569 2.10963 40.499 1.29036 39.5241C0.471079 38.5492 0.0409639 37.4226 0 36.1446H5.18603Z" fill="black"/>
    <path d="M31.8848 23.7571C33.4168 23.7571 34.7441 24.0193 35.8665 24.5436C36.9889 25.0679 37.8491 25.8094 38.4472 26.7679C39.0453 27.7265 39.3443 28.8407 39.3443 30.1106C39.3443 31.3805 39.0453 32.4947 38.4472 33.4532C37.8491 34.4118 36.9889 35.1532 35.8665 35.6776C34.7441 36.2019 33.4168 36.4641 31.8848 36.4641H26.6373V42.1908H21.5373V23.7571H31.8848ZM31.5899 32.3841C32.4091 32.3841 33.0482 32.1834 33.507 31.7819C33.9658 31.3805 34.1952 30.8234 34.1952 30.1106C34.1952 29.3978 33.9658 28.8407 33.507 28.4393C33.0482 28.0378 32.4091 27.8371 31.5899 27.8371H26.6373V32.3841H31.5899Z" fill="black"/>
    <path d="M61.2317 42.1908H55.7999L54.2637 38.6393H44.7396L43.2035 42.1908H37.7594L46.1529 23.7571H52.8505L61.2317 42.1908ZM49.4955 27.6405L46.5093 34.547H52.4941L49.4955 27.6405Z" fill="black"/>
    <path d="M82.3471 34.4732C82.1669 36.0872 81.6098 37.5087 80.6758 38.7376C79.7418 39.9583 78.5088 40.9087 76.9768 41.5887C75.4447 42.2605 73.712 42.5964 71.7785 42.5964C69.6565 42.5964 67.7845 42.1949 66.1623 41.392C64.5402 40.5892 63.2826 39.4626 62.3895 38.0125C61.5047 36.5542 61.0623 34.8747 61.0623 32.974C61.0623 31.0732 61.5047 29.3978 62.3895 27.9477C63.2826 26.4894 64.5402 25.3588 66.1623 24.5559C67.7845 23.753 69.6565 23.3516 71.7785 23.3516C73.712 23.3516 75.4447 23.6916 76.9768 24.3716C78.5088 25.0434 79.7418 25.9937 80.6758 27.2226C81.6098 28.4434 82.1669 29.8607 82.3471 31.4747H77.2226C76.9768 30.3113 76.3828 29.4019 75.4406 28.7465C74.4985 28.0911 73.2736 27.7634 71.7662 27.7634C70.6274 27.7634 69.6401 27.9764 68.8045 28.4024C67.977 28.8202 67.338 29.4224 66.8874 30.2089C66.445 30.9872 66.2238 31.9089 66.2238 32.974C66.2238 34.039 66.445 34.9648 66.8874 35.7513C67.338 36.5296 67.977 37.1318 68.8045 37.5578C69.6401 37.9757 70.6274 38.1846 71.7662 38.1846C73.29 38.1846 74.5189 37.8692 75.4529 37.2383C76.3951 36.5993 76.985 35.6776 77.2226 34.4732H82.3471Z" fill="black"/>
    <path d="M90.1431 34.8296L89.6269 38.0617H101.302V42.1908H84.1583L85.5592 32.974L84.1583 23.7571H101.179V27.8863H89.6269L90.1431 31.1183H100.466V34.8296H90.1431Z" fill="black"/>
</svg>
