<?xml version="1.0" encoding="utf-8"?>
<!-- Generator: Adobe Illustrator 24.0.2, SVG Export Plug-In . SVG Version: 6.00 Build 0)  -->
<svg version="1.1" id="Layer_1" xmlns="http://www.w3.org/2000/svg" xmlns:xlink="http://www.w3.org/1999/xlink" x="0px" y="0px"
	 viewBox="0 0 1000 828" style="enable-background:new 0 0 1000 828;" xml:space="preserve">
<g>
	<path fill="#001EA7" d="M339,720.5c0.3-53.3,36.1-96.2,80-95.9s79.3,43.8,79.1,97c-0.3,53.3-36.1,96.2-80,95.9c-43.6-0.3-78.8-43.1-79.1-95.9
		V720.5z"/>
	<path fill="#001EA7" d="M697.7,720.5c0.3-53.3,36.1-96.2,80-95.9s79.3,43.8,79.1,97c-0.3,53.3-36.1,96.2-80,95.9c-43.6-0.3-78.8-43.1-79.1-95.9
		V720.5z"/>
	<path fill="#001EA7" d="M944.2,142.3H690.1H478.3h-213l-40.5-84.8l-0.6,0.4c-3.7-24.7-25-43.6-50.7-43.6H61.2C32.9,14.3,10,37.2,10,65.5
		s22.9,51.2,51.2,51.2h85.9l34.8,88.7c0.1,0.3,0.2,0.5,0.3,0.8l111.1,323.2c12.2,35.4,50.7,64.1,86.1,64.1h99h211.8h99
		c35.4,0,73.9-28.7,86.1-64.1l111.1-323.2C998.5,171,979.6,142.3,944.2,142.3z M751.2,514.2H420c-18.7,0-33.9-15.2-33.9-33.9
		s15.2-33.9,33.9-33.9h331.2c18.7,0,33.9,15.2,33.9,33.9C785.1,499,769.9,514.2,751.2,514.2z"/>
</g>
</svg>
