<?xml version="1.0" encoding="utf-8"?>
<!-- Generator: Adobe Illustrator 24.0.2, SVG Export Plug-In . SVG Version: 6.00 Build 0)  -->
<svg version="1.1" id="Layer_1" xmlns="http://www.w3.org/2000/svg" xmlns:xlink="http://www.w3.org/1999/xlink" x="0px" y="0px"
	 viewBox="0 0 1000 687"  xml:space="preserve">
<g>
	<g transform="translate(0.000000,511.000000) scale(0.100000,-0.100000)">
		<path fill="#001EA7" d="M2169.5,4870.2c-243.9-36.1-417.8-161.2-523.9-377.5c-67.9-135.7-70-152.7-76.3-432.7l-8.5-290.6l-621.4-6.4
			c-593.8-6.4-625.7-8.5-682.9-50.9c-203.6-150.6-210-439-10.6-572.6c53-38.2,131.5-40.3,1164.4-50.9
			c1081.6-10.6,1107.1-10.6,1166.5-55.1c203.6-150.6,210-439,10.6-572.6c-53-38.2-125.1-40.3-941.7-50.9
			c-854.7-10.6-884.4-12.7-943.8-55.1c-203.6-150.6-210-439-10.6-572.6c53-38.2,125.1-40.3,941.7-50.9
			c854.7-10.6,884.4-12.7,943.8-55.1c161.2-118.8,205.7-326.6,103.9-477.2c-93.3-135.8-142.1-146.3-657.5-146.3H1565V607.4V162
			h-82.7c-65.7,0-93.3-12.7-127.3-55.1c-40.3-53-44.5-84.8-44.5-422.1c0-362.7,0-364.8,55.1-415.7c50.9-48.8,70-50.9,377.5-57.3
			l324.5-6.4l14.8,133.6c40.3,403,294.8,767.7,655.3,937.4c216.3,101.8,343.6,127.3,585.4,112.4c248.1-12.7,405.1-65.7,602.3-199.4
			C4218.1-7.8,4392-304.8,4438.7-680.2l14.8-112.4H5635h1181.3l25.5,176c65.8,466.6,417.8,858.9,873.8,979.8
			c137.9,36.1,398.7,40.3,555.7,8.5c456-93.3,844.1-513.2,912-988.3l25.5-176h258.7c271.5,0,377.5,21.2,411.5,84.8
			c12.7,21.2,21.2,205.7,21.2,409.3c0,356.3-2.1,369-48.8,413.6c-27.6,25.4-74.2,46.7-106,46.7H9690l-6.4,1109.2
			c-6.4,1079.5-8.5,1109.2-50.9,1202.5c-25.5,53-271.5,392.4-547.2,752.9C8689,3748.3,8566,3894.6,8496,3932.8
			c-86.9,46.7-97.5,46.7-901.4,46.7h-812.3V4340c0,432.7-17,494.2-142.1,528.1C6546.9,4895.6,2343.4,4895.6,2169.5,4870.2z
			 M8061.2,3292.3c91.2-38.2,131.5-84.8,481.4-564.2l301.2-413.6l-791.1-6.4c-436.9-2.1-805.9,0-818.7,6.4
			c-21.2,6.4-27.6,127.3-27.6,509V3322h392.4C7885.2,3322,8010.3,3313.5,8061.2,3292.3z"/>
		<path fill="#001EA7" d="M3017.8,28.3c-237.5-80.6-415.7-233.3-526-458.1c-63.6-129.4-67.9-154.8-67.9-352.1c0-195.1,6.4-224.8,67.9-356.3
			c82.7-173.9,233.3-326.6,403-411.5c112.4-53,144.2-59.4,356.3-59.4c207.8,0,246,6.4,354.2,57.3
			c345.7,161.2,553.5,553.5,485.7,909.9c-55.1,275.7-239.7,517.5-485.7,629.9c-97.6,44.6-159.1,57.3-311.8,61.5
			C3174.8,53.7,3070.8,45.2,3017.8,28.3z M3380.5-538c201.5-99.7,205.7-383.9,6.4-492.1c-87-46.6-144.2-48.8-241.8-8.5
			c-231.2,97.5-201.5,464.5,42.4,528.1C3263.9-491.3,3289.3-495.6,3380.5-538z"/>
		<path fill="#001EA7" d="M7768.5,28.3c-135.7-46.7-222.7-97.5-330.8-199.4c-258.7-241.8-335.1-587.5-210-926.8c65.7-169.7,252.4-369,428.4-449.6
			c120.9-55.1,154.8-61.5,356.3-61.5c205.7,0,233.3,4.2,360.5,65.7c405.1,195.1,583.2,646.9,424.2,1077.4
			c-63.6,167.5-239.7,352.1-417.8,441.1c-120.9,59.4-165.4,70-333,74.2C7927.6,53.7,7821.6,45.2,7768.5,28.3z M8133.3-535.9
			c222.7-101.8,203.6-428.4-31.8-511.1c-324.5-112.4-521.7,369-210,511.1c48.8,21.2,103.9,40.3,120.9,40.3
			S8084.6-514.6,8133.3-535.9z"/>
	</g>
</g>
</svg>
